<svg width="1735" height="1057" viewBox="0 0 1735 1057" fill="none" xmlns="http://www.w3.org/2000/svg">
<path d="M0 950.884V738.741C82.496 718.68 262.598 711.883 359.257 738.741C483.799 773.346 1033.22 812.085 1074.58 815.473C1111.3 818.482 1525.38 828.513 1727.63 815.473V952.389C1518.46 932.829 1092.14 877.636 1041.05 880.17C980.371 883.179 874.276 897.896 812.718 907.252C763.221 914.775 249.617 938.346 0 950.884Z" fill="#45BAF1" fill-opacity="0.36"/>
<path d="M0 46.6415L395.981 934.334L271.438 934.334L0 46.6415Z" fill="#78D6FF" fill-opacity="0.34"/>
<path d="M25.5471 27.0821L672.209 922.713H551.249L25.5471 27.0821Z" fill="#78D6FF" fill-opacity="0.34"/>
<path d="M215.554 0L1726.03 722.073L1727.63 815.473L215.554 0Z" fill="#78D6FF" fill-opacity="0.34"/>
<path d="M67.0612 30.0913L1023.48 884.683L801.424 921.234L67.0612 30.0913Z" fill="#78D6FF" fill-opacity="0.34"/>
<path d="M131.119 18.0548L1726.03 993.012L1432.24 1056.93L131.119 18.0548Z" fill="#78D6FF" fill-opacity="0.34"/>
<path d="M1.5967 1056.93V950.411C272.26 923.565 675.051 931.217 922.41 893.254C1176.33 854.283 1503.73 950.411 1726.03 950.411V1056.93H1.5967Z" fill="#F9D984"/>
<path d="M694.563 956.714C694.563 958.272 690.988 959.535 686.579 959.535C682.17 959.535 678.596 958.272 678.596 956.714C678.596 955.156 682.17 953.893 686.579 953.893C690.988 953.893 694.563 955.156 694.563 956.714Z" fill="#E5AD5E"/>
<path d="M522.12 971.76C522.12 973.318 518.545 974.581 514.136 974.581C509.727 974.581 506.153 973.318 506.153 971.76C506.153 970.202 509.727 968.939 514.136 968.939C518.545 968.939 522.12 970.202 522.12 971.76Z" fill="#E5AD5E"/>
<path d="M800.223 983.369C749.056 986.105 637.927 1043.82 594.221 1056.93H1165.19H1726.03V950.884C1673.8 972.541 1690.85 993.627 1537.35 1003.89C1505.43 1006.02 1262.33 978.24 1225.55 978.24C1188.77 978.24 1062.45 995.337 1025.68 995.337C1004.65 995.337 864.182 979.95 800.223 983.369Z" fill="#FBA55C"/>
<path d="M726.497 949.379C726.497 951.872 720.778 953.893 713.723 953.893C706.669 953.893 700.95 951.872 700.95 949.379C700.95 946.887 706.669 944.866 713.723 944.866C720.778 944.866 726.497 946.887 726.497 949.379Z" fill="#E5AD5E"/>
<path d="M692.434 941.857C692.434 943.519 688.621 944.866 683.918 944.866C679.215 944.866 675.402 943.519 675.402 941.857C675.402 940.195 679.215 938.848 683.918 938.848C688.621 938.848 692.434 940.195 692.434 941.857Z" fill="#E5AD5E"/>
<path d="M373.095 965.93C373.095 967.592 369.282 968.939 364.579 968.939C359.876 968.939 356.063 967.592 356.063 965.93C356.063 964.268 359.876 962.921 364.579 962.921C369.282 962.921 373.095 964.268 373.095 965.93Z" fill="#E5AD5E"/>
<path d="M238.972 986.994C238.972 988.655 235.16 990.003 230.456 990.003C225.753 990.003 221.941 988.655 221.941 986.994C221.941 985.332 225.753 983.984 230.456 983.984C235.16 983.984 238.972 985.332 238.972 986.994Z" fill="#E5AD5E"/>
<path d="M923.616 936.386C923.616 937.745 926.736 938.848 930.584 938.848C934.432 938.848 937.551 937.745 937.551 936.386C937.551 935.026 934.432 933.924 930.584 933.924C926.736 933.924 923.616 935.026 923.616 936.386Z" fill="#E5AD5E"/>
<path d="M902.133 929.273C902.133 930.633 905.253 931.735 909.101 931.735C912.949 931.735 916.068 930.633 916.068 929.273C916.068 927.913 912.949 926.811 909.101 926.811C905.253 926.811 902.133 927.913 902.133 929.273Z" fill="#E5AD5E"/>
<path d="M895.747 944.319C895.747 945.678 898.866 946.781 902.714 946.781C906.562 946.781 909.681 945.678 909.681 944.319C909.681 942.959 906.562 941.857 902.714 941.857C898.866 941.857 895.747 942.959 895.747 944.319Z" fill="#E5AD5E"/>
<path d="M815.912 932.829C815.912 934.491 819.725 935.838 824.428 935.838C829.131 935.838 832.943 934.491 832.943 932.829C832.943 931.167 829.131 929.82 824.428 929.82C819.725 929.82 815.912 931.167 815.912 932.829Z" fill="#E5AD5E"/>
<path d="M1001.13 962.373C1001.13 963.733 1004.25 964.835 1008.1 964.835C1011.94 964.835 1015.06 963.733 1015.06 962.373C1015.06 961.014 1011.94 959.911 1008.1 959.911C1004.25 959.911 1001.13 961.014 1001.13 962.373Z" fill="#E5AD5E"/>
<path d="M1183.15 911.218C1183.15 912.578 1186.27 913.68 1190.12 913.68C1193.97 913.68 1197.09 912.578 1197.09 911.218C1197.09 909.859 1193.97 908.756 1190.12 908.756C1186.27 908.756 1183.15 909.859 1183.15 911.218Z" fill="#E5AD5E"/>
<path d="M1141.64 944.319C1141.64 945.678 1144.76 946.781 1148.61 946.781C1152.45 946.781 1155.57 945.678 1155.57 944.319C1155.57 942.959 1152.45 941.857 1148.61 941.857C1144.76 941.857 1141.64 942.959 1141.64 944.319Z" fill="#E5AD5E"/>
<path d="M1282.15 945.823C1282.15 948.014 1287.17 949.79 1293.37 949.79C1299.57 949.79 1304.6 948.014 1304.6 945.823C1304.6 943.633 1299.57 941.857 1293.37 941.857C1287.17 941.857 1282.15 943.633 1282.15 945.823Z" fill="#E5AD5E"/>
<path d="M528.506 957.86C528.506 960.05 533.532 961.826 539.732 961.826C545.931 961.826 550.957 960.05 550.957 957.86C550.957 955.669 545.931 953.893 539.732 953.893C533.532 953.893 528.506 955.669 528.506 957.86Z" fill="#E5AD5E"/>
<path d="M1055.42 927.939C1055.42 928.563 1056.85 929.068 1058.61 929.068C1060.37 929.068 1061.8 928.563 1061.8 927.939C1061.8 927.316 1060.37 926.811 1058.61 926.811C1056.85 926.811 1055.42 927.316 1055.42 927.939Z" fill="#E5AD5E"/>
<path d="M1029.87 929.273C1029.87 930.633 1032.99 931.735 1036.84 931.735C1040.68 931.735 1043.8 930.633 1043.8 929.273C1043.8 927.913 1040.68 926.811 1036.84 926.811C1032.99 926.811 1029.87 927.913 1029.87 929.273Z" fill="#E5AD5E"/>
<path d="M1061.8 935.291C1061.8 936.651 1064.92 937.753 1068.77 937.753C1072.62 937.753 1075.74 936.651 1075.74 935.291C1075.74 933.932 1072.62 932.829 1068.77 932.829C1064.92 932.829 1061.8 933.932 1061.8 935.291Z" fill="#E5AD5E"/>
<path d="M1033.06 915.705C1033.06 917.88 1038.05 919.644 1044.21 919.644C1050.37 919.644 1055.36 917.88 1055.36 915.705C1055.36 913.529 1050.37 911.765 1044.21 911.765C1038.05 911.765 1033.06 913.529 1033.06 915.705Z" fill="#E5AD5E"/>
<path d="M925.474 923.419C925.474 924.869 928.801 926.045 932.906 926.045C937.01 926.045 940.338 924.869 940.338 923.419C940.338 921.969 937.01 920.793 932.906 920.793C928.801 920.793 925.474 921.969 925.474 923.419Z" fill="#E5AD5E"/>
<path d="M868.682 901.22L868.603 901.233C930.874 898.224 1074.7 902.414 1080.96 901.233C1112.9 895.215 1460.98 944.436 1473.75 947.875C1484.93 950.884 1668.55 970.443 1726.03 950.884C1656.84 945.367 1509.52 930.723 1473.75 922.297C1429.04 911.765 1138.44 883.179 1066.59 880.17C1009.15 877.764 910.773 894.191 868.682 901.22Z" fill="#FFEAB4"/>
<path d="M132.363 939.297C130.95 933.509 123.868 919.851 106.841 911.525C89.8146 903.199 101.081 896.978 108.843 894.908C112.381 894.534 114.624 891.491 102.467 876.832C84.9542 855.714 100.886 854.812 108.589 852.28C111.187 851.224 114.366 847.732 106.296 842.21C96.2076 835.307 89.4644 819.853 93.9914 817.729C97.8593 815.914 101.3 818.832 102.427 819.65C104.643 820.978 107.595 821.563 107.733 812.996C107.908 802.197 102.135 792.963 98.5195 788.657C95.0121 784.481 93.6018 782.146 94.9817 776.844C99.0944 761.042 115.098 753.626 97.6822 729.216C83.7494 709.688 102.904 724.602 114.223 734.5C120.65 739.446 130.78 755.344 119.88 779.37C114.967 790.201 128.102 795.845 129.172 796.2C131.893 797.475 136.344 801.911 132.379 809.455C127.423 818.885 126.198 821.358 127.948 823.048C129.347 824.4 133.066 824.382 134.751 824.204C137.387 823.457 142.257 824.442 140.64 834.363C139.023 844.283 133.967 853.192 131.641 856.407C129.335 859.775 127.078 865.701 136.501 862.456C148.279 858.399 143.984 877.133 135.549 887.399C127.114 897.665 134.092 900.209 140.875 897.149C147.658 894.089 148.436 904.319 142.897 921.31C138.466 934.903 147.685 944.397 152.849 947.445C149.925 947.575 144.894 947.885 140.164 948.372C136.658 948.732 133.316 949.189 131.119 949.741C132.071 949.171 133.653 946.286 132.363 939.297Z" fill="#41802C"/>
<path d="M1678.53 950.079C1680.52 941.832 1690.4 922.389 1714.03 910.597C1737.67 898.805 1722.1 889.879 1711.35 886.89C1706.46 886.34 1714.3 886.776 1720.29 861.143C1727.63 829.73 1722.6 829.749 1711.94 826.101C1708.35 824.583 1703.97 819.588 1715.18 811.752C1729.19 801.956 1729.09 774.892 1722.84 771.841C1717.49 769.234 1722.23 778.437 1720.66 779.599C1717.59 781.483 1713.49 782.302 1713.35 770.084C1713.17 754.683 1726.36 743.164 1726.25 735.42C1726.21 732.672 1727.91 725.198 1726.03 717.631C1720.42 695.076 1703.48 685.383 1727.74 650.657C1747.15 622.877 1720.53 644.052 1704.8 658.113C1695.86 665.135 1681.74 687.758 1696.71 722.073C1703.46 737.543 1685.23 745.527 1683.74 746.03C1679.97 747.835 1673.78 754.139 1679.23 764.916C1686.04 778.387 1687.72 781.92 1685.29 784.322C1683.34 786.243 1678.19 786.2 1675.86 785.938C1672.21 784.859 1665.46 786.241 1667.64 800.396C1669.83 814.552 1676.78 827.28 1679.99 831.876C1683.16 836.69 1686.26 845.152 1673.22 840.478C1656.93 834.637 1662.77 861.374 1674.4 876.054C1686.03 890.735 1676.35 894.329 1666.97 889.932C1657.59 885.535 1656.45 900.12 1664.03 924.377C1670.1 943.783 1657.27 957.278 1650.1 961.6C1654.15 961.799 1661.12 962.266 1667.67 962.983C1672.52 963.514 1677.15 964.181 1680.19 964.978C1678.87 964.162 1676.7 960.039 1678.53 950.079Z" fill="#41802C"/>
<path d="M1651.94 960.854C1648.8 955.819 1643.12 944.215 1645.6 938.073C1648.08 931.932 1659.64 918.696 1665.11 912.845C1669.59 907.33 1673.18 899.67 1650.35 900.488C1636.81 900.974 1665.16 870.583 1668.12 861.021C1670.52 853.265 1668.08 850.094 1667.43 849.576C1666.31 847.22 1661.88 844.137 1653.11 850.642C1652.32 851.223 1650.35 852.205 1648.74 851.489C1646.72 850.594 1642.41 845.429 1651.49 829.73C1660.57 814.031 1659.59 810.577 1657.57 809.681C1655.56 808.786 1649.63 810.795 1643.69 812.805C1637.76 814.814 1639.75 799.343 1643.11 789.333C1652.21 762.268 1656.21 758.704 1663.93 748.202C1671.64 737.699 1674.89 711.983 1658.93 703.504C1656.95 702.389 1653.16 702.053 1653.9 709.627C1654.83 719.094 1656 737.949 1634.99 746.959C1632.52 747.796 1627.9 748.035 1629.19 742.296C1630.81 735.121 1622.61 738.213 1619.84 743.253C1617.08 748.292 1612.83 753.834 1620.74 775.453C1627.07 792.748 1626.01 803.017 1624.69 805.989C1623.68 808.328 1620.25 809.637 1614.57 796.16C1607.48 779.314 1602.74 805.532 1606.56 814.654C1610.37 823.776 1614.8 833.636 1620.8 842.334C1625.6 849.292 1625.42 854.444 1624.73 856.15C1623.73 858.489 1620.32 861.808 1614.77 856.369C1607.82 849.57 1605.75 854.688 1605.5 856.666C1605.25 858.645 1604.09 867.876 1610.28 880.609C1615.24 890.795 1623.22 899.895 1626.59 903.171C1629.5 906.395 1634.37 913.54 1630.61 916.328C1625.91 919.813 1619.49 914.411 1614.56 908.508C1609.63 902.604 1609.88 900.626 1606.3 900.893C1602.72 901.159 1599.25 906.12 1599.98 911.552C1600.72 916.985 1602.4 920.517 1609.8 929.372C1617.19 938.228 1628 948.135 1626.09 963.301L1639.02 962.078L1651.94 960.854Z" fill="#56A03E"/>
<path d="M1282.15 496.506C1282.15 513.125 1267.85 526.597 1250.21 526.597C1232.58 526.597 1218.28 513.125 1218.28 496.506C1218.28 479.887 1232.58 466.415 1250.21 466.415C1267.85 466.415 1282.15 479.887 1282.15 496.506Z" fill="#BCE9EB"/>
<path d="M1252.35 466.415C1289.75 467.612 1295.59 525.496 1248.76 525.993C1247.6 526.025 1246.41 526.003 1245.2 525.923C1246.42 525.982 1247.6 526.005 1248.76 525.993C1283.14 525.019 1295.7 475.91 1252.35 466.415Z" fill="#59ABAC"/>
<path d="M1221.83 504.176C1215.32 491.321 1227.68 458.877 1261.48 471.732C1249.78 469.057 1222.48 469.284 1221.83 504.176Z" fill="white"/>
<path d="M1242.92 520.503C1231.66 519.202 1232.62 517.061 1234.37 516.858C1253.3 514.428 1261.54 506.936 1263.29 503.493C1267.89 495.596 1266.47 491.07 1264.61 486.484C1262.63 481.624 1258.9 477.83 1261.98 476.764C1267.23 474.941 1272.07 481.414 1273.15 484.054C1284.32 511.391 1258.69 522.326 1242.92 520.503Z" fill="#9DDADA"/>
<path d="M1277.16 491.196C1279.16 498.776 1277.16 517.624 1256.47 520.697C1262.48 519.206 1278.49 507.176 1277.16 491.196Z" fill="white"/>
<path d="M1244.58 492.081C1244.58 496.806 1240.37 500.636 1235.19 500.636C1230 500.636 1225.79 496.806 1225.79 492.081C1225.79 487.356 1230 483.525 1235.19 483.525C1240.37 483.525 1244.58 487.356 1244.58 492.081Z" fill="#E9FFFF"/>
<path d="M1270.25 506.241C1270.25 509.989 1267.03 513.027 1263.05 513.027C1259.07 513.027 1255.85 509.989 1255.85 506.241C1255.85 502.494 1259.07 499.456 1263.05 499.456C1267.03 499.456 1270.25 502.494 1270.25 506.241Z" fill="#E9FFFF"/>
<path d="M1231.43 503.586C1231.43 505.216 1229.89 506.536 1227.98 506.536C1226.08 506.536 1224.54 505.216 1224.54 503.586C1224.54 501.957 1226.08 500.636 1227.98 500.636C1229.89 500.636 1231.43 501.957 1231.43 503.586Z" fill="#E9FFFF"/>
<path d="M1275.89 496.211C1275.89 498.003 1274.34 499.456 1272.44 499.456C1270.54 499.456 1269 498.003 1269 496.211C1269 494.419 1270.54 492.966 1272.44 492.966C1274.34 492.966 1275.89 494.419 1275.89 496.211Z" fill="#E9FFFF"/>
<path d="M1365.18 598.816C1365.18 607.126 1358.03 613.862 1349.21 613.862C1340.39 613.862 1333.24 607.126 1333.24 598.816C1333.24 590.507 1340.39 583.771 1349.21 583.771C1358.03 583.771 1365.18 590.507 1365.18 598.816Z" fill="#BCE9EB"/>
<path d="M1350.28 583.771C1368.98 584.369 1371.9 613.311 1348.48 613.56C1347.9 613.576 1347.31 613.565 1346.7 613.525C1347.31 613.555 1347.9 613.566 1348.48 613.56C1365.67 613.073 1371.95 588.518 1350.28 583.771Z" fill="#59ABAC"/>
<path d="M1335.01 602.651C1331.76 596.224 1337.94 580.002 1354.84 586.429C1348.99 585.092 1335.34 585.205 1335.01 602.651Z" fill="white"/>
<path d="M1345.56 610.815C1339.93 610.164 1340.41 609.094 1341.29 608.992C1350.75 607.777 1354.87 604.031 1355.75 602.31C1358.05 598.361 1357.33 596.098 1356.4 593.805C1355.42 591.375 1353.55 589.479 1355.09 588.945C1357.72 588.034 1360.14 591.27 1360.68 592.59C1366.26 606.259 1353.45 611.726 1345.56 610.815Z" fill="#9DDADA"/>
<path d="M1362.68 596.161C1363.68 599.951 1362.68 609.375 1352.34 610.912C1355.34 610.166 1363.35 604.151 1362.68 596.161Z" fill="white"/>
<path d="M1346.39 596.604C1346.39 598.966 1344.29 600.881 1341.69 600.881C1339.1 600.881 1337 598.966 1337 596.604C1337 594.241 1339.1 592.326 1341.69 592.326C1344.29 592.326 1346.39 594.241 1346.39 596.604Z" fill="#E9FFFF"/>
<path d="M1359.23 603.684C1359.23 605.558 1357.61 607.077 1355.63 607.077C1353.64 607.077 1352.03 605.558 1352.03 603.684C1352.03 601.81 1353.64 600.291 1355.63 600.291C1357.61 600.291 1359.23 601.81 1359.23 603.684Z" fill="#E9FFFF"/>
<path d="M1339.82 602.356C1339.82 603.171 1339.05 603.832 1338.09 603.832C1337.14 603.832 1336.37 603.171 1336.37 602.356C1336.37 601.542 1337.14 600.881 1338.09 600.881C1339.05 600.881 1339.82 601.542 1339.82 602.356Z" fill="#E9FFFF"/>
<path d="M1362.04 598.669C1362.04 599.565 1361.27 600.291 1360.32 600.291C1359.37 600.291 1358.6 599.565 1358.6 598.669C1358.6 597.773 1359.37 597.046 1360.32 597.046C1361.27 597.046 1362.04 597.773 1362.04 598.669Z" fill="#E9FFFF"/>
<path d="M1167.18 565.716C1167.18 570.702 1162.9 574.743 1157.6 574.743C1152.31 574.743 1148.02 570.702 1148.02 565.716C1148.02 560.73 1152.31 556.689 1157.6 556.689C1162.9 556.689 1167.18 560.73 1167.18 565.716Z" fill="#BCE9EB"/>
<path d="M1158.25 556.689C1169.46 557.048 1171.22 574.413 1157.17 574.562C1156.82 574.572 1156.46 574.565 1156.1 574.541C1156.47 574.559 1156.82 574.566 1157.17 574.562C1167.48 574.27 1171.25 559.537 1158.25 556.689Z" fill="#59ABAC"/>
<path d="M1149.09 568.017C1147.14 564.16 1150.84 554.427 1160.99 558.284C1157.48 557.481 1149.28 557.549 1149.09 568.017Z" fill="white"/>
<path d="M1155.42 572.915C1152.04 572.525 1152.33 571.882 1152.85 571.822C1158.53 571.093 1161 568.845 1161.53 567.812C1162.91 565.443 1162.48 564.085 1161.92 562.709C1161.33 561.251 1160.21 560.113 1161.13 559.793C1162.71 559.247 1164.16 561.188 1164.49 561.98C1167.84 570.181 1160.15 573.462 1155.42 572.915Z" fill="#9DDADA"/>
<path d="M1165.69 564.123C1166.29 566.397 1165.69 572.051 1159.48 572.973C1161.28 572.526 1166.09 568.917 1165.69 564.123Z" fill="white"/>
<path d="M1155.91 564.388C1155.91 565.806 1154.65 566.955 1153.1 566.955C1151.54 566.955 1150.28 565.806 1150.28 564.388C1150.28 562.971 1151.54 561.822 1153.1 561.822C1154.65 561.822 1155.91 562.971 1155.91 564.388Z" fill="#E9FFFF"/>
<path d="M1163.62 568.637C1163.62 569.761 1162.65 570.672 1161.46 570.672C1160.26 570.672 1159.3 569.761 1159.3 568.637C1159.3 567.512 1160.26 566.601 1161.46 566.601C1162.65 566.601 1163.62 567.512 1163.62 568.637Z" fill="#E9FFFF"/>
<path d="M1151.97 567.84C1151.97 568.329 1151.51 568.725 1150.94 568.725C1150.37 568.725 1149.9 568.329 1149.9 567.84C1149.9 567.351 1150.37 566.955 1150.94 566.955C1151.51 566.955 1151.97 567.351 1151.97 567.84Z" fill="#E9FFFF"/>
<path d="M1165.31 565.627C1165.31 566.165 1164.84 566.601 1164.27 566.601C1163.7 566.601 1163.24 566.165 1163.24 565.627C1163.24 565.09 1163.7 564.654 1164.27 564.654C1164.84 564.654 1165.31 565.09 1165.31 565.627Z" fill="#E9FFFF"/>
<path d="M672.209 418.269C672.209 424.916 666.49 430.305 659.436 430.305C652.381 430.305 646.662 424.916 646.662 418.269C646.662 411.621 652.381 406.232 659.436 406.232C666.49 406.232 672.209 411.621 672.209 418.269Z" fill="#BCE9EB"/>
<path d="M660.289 406.232C675.249 406.711 677.588 429.865 658.853 430.063C658.389 430.076 657.915 430.068 657.432 430.036C657.918 430.059 658.392 430.068 658.853 430.063C672.604 429.674 677.63 410.03 660.289 406.232Z" fill="#59ABAC"/>
<path d="M648.081 421.337C645.48 416.195 650.421 403.217 663.944 408.359C659.263 407.289 648.341 407.38 648.081 421.337Z" fill="white"/>
<path d="M656.517 427.868C652.012 427.347 652.399 426.491 653.1 426.41C660.671 425.438 663.966 422.441 664.667 421.064C666.507 417.905 665.937 416.094 665.192 414.26C664.404 412.316 662.91 410.798 664.141 410.372C666.244 409.643 668.178 412.232 668.61 413.288C673.079 424.223 662.826 428.597 656.517 427.868Z" fill="#9DDADA"/>
<path d="M670.213 416.145C671.014 419.177 670.213 426.716 661.94 427.945C664.342 427.349 670.747 422.537 670.213 416.145Z" fill="white"/>
<path d="M657.181 416.499C657.181 418.389 655.499 419.921 653.424 419.921C651.35 419.921 649.667 418.389 649.667 416.499C649.667 414.609 651.35 413.077 653.424 413.077C655.499 413.077 657.181 414.609 657.181 416.499Z" fill="#E9FFFF"/>
<path d="M667.45 422.163C667.45 423.662 666.161 424.877 664.57 424.877C662.979 424.877 661.69 423.662 661.69 422.163C661.69 420.664 662.979 419.449 664.57 419.449C666.161 419.449 667.45 420.664 667.45 422.163Z" fill="#E9FFFF"/>
<path d="M651.922 421.101C651.922 421.753 651.305 422.281 650.544 422.281C649.783 422.281 649.167 421.753 649.167 421.101C649.167 420.449 649.783 419.921 650.544 419.921C651.305 419.921 651.922 420.449 651.922 421.101Z" fill="#E9FFFF"/>
<path d="M669.704 418.151C669.704 418.868 669.088 419.449 668.327 419.449C667.566 419.449 666.949 418.868 666.949 418.151C666.949 417.434 667.566 416.853 668.327 416.853C669.088 416.853 669.704 417.434 669.704 418.151Z" fill="#E9FFFF"/>
<path d="M783.978 662.008C783.978 666.994 779.689 671.035 774.398 671.035C769.107 671.035 764.817 666.994 764.817 662.008C764.817 657.022 769.107 652.981 774.398 652.981C779.689 652.981 783.978 657.022 783.978 662.008Z" fill="#BCE9EB"/>
<path d="M775.038 652.981C786.258 653.34 788.012 670.705 773.96 670.854C773.613 670.864 773.257 670.857 772.895 670.833C773.26 670.851 773.615 670.858 773.96 670.854C784.274 670.562 788.044 655.829 775.038 652.981Z" fill="#59ABAC"/>
<path d="M765.881 664.309C763.931 660.453 767.637 650.719 777.779 654.576C774.268 653.773 766.076 653.841 765.881 664.309Z" fill="white"/>
<path d="M772.209 669.207C768.83 668.817 769.12 668.174 769.646 668.114C775.324 667.385 777.795 665.137 778.321 664.104C779.701 661.735 779.273 660.377 778.715 659.001C778.124 657.543 777.004 656.405 777.927 656.085C779.504 655.539 780.955 657.48 781.278 658.272C784.63 666.473 776.941 669.754 772.209 669.207Z" fill="#9DDADA"/>
<path d="M782.481 660.415C783.081 662.689 782.481 668.343 776.276 669.265C778.077 668.818 782.881 665.209 782.481 660.415Z" fill="white"/>
<path d="M772.707 660.68C772.707 662.098 771.446 663.247 769.889 663.247C768.333 663.247 767.072 662.098 767.072 660.68C767.072 659.263 768.333 658.114 769.889 658.114C771.446 658.114 772.707 659.263 772.707 660.68Z" fill="#E9FFFF"/>
<path d="M780.409 664.929C780.409 666.053 779.442 666.964 778.248 666.964C777.055 666.964 776.088 666.053 776.088 664.929C776.088 663.804 777.055 662.893 778.248 662.893C779.442 662.893 780.409 663.804 780.409 664.929Z" fill="#E9FFFF"/>
<path d="M768.762 664.132C768.762 664.621 768.3 665.017 767.729 665.017C767.158 665.017 766.696 664.621 766.696 664.132C766.696 663.643 767.158 663.247 767.729 663.247C768.3 663.247 768.762 663.643 768.762 664.132Z" fill="#E9FFFF"/>
<path d="M782.099 661.92C782.099 662.457 781.637 662.893 781.066 662.893C780.496 662.893 780.033 662.457 780.033 661.92C780.033 661.382 780.496 660.946 781.066 660.946C781.637 660.946 782.099 661.382 782.099 661.92Z" fill="#E9FFFF"/>
<path d="M608.341 783.878C608.341 793.018 600.478 800.428 590.778 800.428C581.077 800.428 573.214 793.018 573.214 783.878C573.214 774.737 581.077 767.327 590.778 767.327C600.478 767.327 608.341 774.737 608.341 783.878Z" fill="#BCE9EB"/>
<path d="M591.952 767.327C612.522 767.986 615.737 799.822 589.976 800.095C589.338 800.113 588.687 800.101 588.022 800.057C588.691 800.089 589.343 800.102 589.976 800.095C608.885 799.56 615.795 772.55 591.952 767.327Z" fill="#59ABAC"/>
<path d="M575.165 788.096C571.589 781.026 578.383 763.182 596.977 770.252C590.54 768.781 575.522 768.905 575.165 788.096Z" fill="white"/>
<path d="M586.765 797.076C580.571 796.36 581.102 795.183 582.066 795.071C592.476 793.735 597.007 789.614 597.97 787.721C600.501 783.377 599.717 780.888 598.693 778.365C597.609 775.692 595.555 773.606 597.247 773.019C600.139 772.017 602.799 775.577 603.392 777.029C609.537 792.064 595.44 798.078 586.765 797.076Z" fill="#9DDADA"/>
<path d="M605.597 780.957C606.698 785.126 605.597 795.492 594.221 797.183C597.524 796.362 606.331 789.746 605.597 780.957Z" fill="white"/>
<path d="M587.678 781.444C587.678 784.042 585.365 786.149 582.512 786.149C579.659 786.149 577.347 784.042 577.347 781.444C577.347 778.845 579.659 776.738 582.512 776.738C585.365 776.738 587.678 778.845 587.678 781.444Z" fill="#E9FFFF"/>
<path d="M601.798 789.232C601.798 791.293 600.025 792.964 597.837 792.964C595.65 792.964 593.877 791.293 593.877 789.232C593.877 787.171 595.65 785.5 597.837 785.5C600.025 785.5 601.798 787.171 601.798 789.232Z" fill="#E9FFFF"/>
<path d="M580.446 787.772C580.446 788.668 579.598 789.394 578.552 789.394C577.506 789.394 576.658 788.668 576.658 787.772C576.658 786.876 577.506 786.149 578.552 786.149C579.598 786.149 580.446 786.876 580.446 787.772Z" fill="#E9FFFF"/>
<path d="M604.897 783.715C604.897 784.701 604.049 785.5 603.003 785.5C601.957 785.5 601.109 784.701 601.109 783.715C601.109 782.73 601.957 781.931 603.003 781.931C604.049 781.931 604.897 782.73 604.897 783.715Z" fill="#E9FFFF"/>
<path d="M225.134 490.488C225.134 498.797 217.986 505.533 209.167 505.533C200.349 505.533 193.2 498.797 193.2 490.488C193.2 482.178 200.349 475.442 209.167 475.442C217.986 475.442 225.134 482.178 225.134 490.488Z" fill="#BCE9EB"/>
<path d="M210.235 475.442C228.934 476.041 231.858 504.983 208.439 505.231C207.859 505.247 207.267 505.236 206.663 505.196C207.271 505.226 207.863 505.237 208.439 505.231C225.628 504.744 231.911 480.19 210.235 475.442Z" fill="#59ABAC"/>
<path d="M194.974 494.323C191.723 487.895 197.899 471.673 214.803 478.101C208.951 476.763 195.299 476.876 194.974 494.323Z" fill="white"/>
<path d="M205.519 502.486C199.888 501.836 200.371 500.765 201.248 500.664C210.711 499.449 214.83 495.703 215.706 493.981C218.006 490.033 217.294 487.77 216.363 485.477C215.378 483.047 213.511 481.15 215.049 480.617C217.678 479.705 220.096 482.942 220.635 484.262C226.221 497.93 213.406 503.398 205.519 502.486Z" fill="#9DDADA"/>
<path d="M222.639 487.833C223.64 491.623 222.639 501.047 212.298 502.583C215.3 501.838 223.306 495.823 222.639 487.833Z" fill="white"/>
<path d="M206.349 488.275C206.349 490.638 204.247 492.553 201.653 492.553C199.06 492.553 196.957 490.638 196.957 488.275C196.957 485.913 199.06 483.997 201.653 483.997C204.247 483.997 206.349 485.913 206.349 488.275Z" fill="#E9FFFF"/>
<path d="M219.186 495.355C219.186 497.229 217.574 498.748 215.585 498.748C213.597 498.748 211.985 497.229 211.985 495.355C211.985 493.482 213.597 491.963 215.585 491.963C217.574 491.963 219.186 493.482 219.186 495.355Z" fill="#E9FFFF"/>
<path d="M199.775 494.028C199.775 494.843 199.004 495.503 198.053 495.503C197.102 495.503 196.331 494.843 196.331 494.028C196.331 493.213 197.102 492.553 198.053 492.553C199.004 492.553 199.775 493.213 199.775 494.028Z" fill="#E9FFFF"/>
<path d="M222.003 490.34C222.003 491.236 221.232 491.963 220.281 491.963C219.33 491.963 218.56 491.236 218.56 490.34C218.56 489.444 219.33 488.718 220.281 488.718C221.232 488.718 222.003 489.444 222.003 490.34Z" fill="#E9FFFF"/>
<path d="M193.2 591.294C193.2 600.434 185.337 607.844 175.637 607.844C165.936 607.844 158.073 600.434 158.073 591.294C158.073 582.153 165.936 574.743 175.637 574.743C185.337 574.743 193.2 582.153 193.2 591.294Z" fill="#BCE9EB"/>
<path d="M176.811 574.743C197.381 575.402 200.596 607.238 174.835 607.511C174.197 607.529 173.546 607.517 172.881 607.473C173.55 607.505 174.202 607.518 174.835 607.511C193.744 606.976 200.654 579.966 176.811 574.743Z" fill="#59ABAC"/>
<path d="M160.024 595.512C156.448 588.442 163.242 570.598 181.836 577.668C175.399 576.196 160.381 576.321 160.024 595.512Z" fill="white"/>
<path d="M171.624 604.492C165.43 603.776 165.961 602.599 166.925 602.487C177.335 601.151 181.866 597.03 182.829 595.137C185.36 590.793 184.576 588.304 183.552 585.781C182.468 583.108 180.414 581.022 182.106 580.435C184.998 579.433 187.658 582.993 188.251 584.445C194.396 599.48 180.299 605.494 171.624 604.492Z" fill="#9DDADA"/>
<path d="M190.456 588.373C191.557 592.542 190.456 602.908 179.08 604.599C182.383 603.778 191.19 597.162 190.456 588.373Z" fill="white"/>
<path d="M172.537 588.86C172.537 591.458 170.224 593.565 167.371 593.565C164.518 593.565 162.206 591.458 162.206 588.86C162.206 586.261 164.518 584.154 167.371 584.154C170.224 584.154 172.537 586.261 172.537 588.86Z" fill="#E9FFFF"/>
<path d="M186.657 596.648C186.657 598.709 184.884 600.38 182.696 600.38C180.509 600.38 178.736 598.709 178.736 596.648C178.736 594.587 180.509 592.916 182.696 592.916C184.884 592.916 186.657 594.587 186.657 596.648Z" fill="#E9FFFF"/>
<path d="M165.305 595.188C165.305 596.084 164.457 596.81 163.411 596.81C162.365 596.81 161.517 596.084 161.517 595.188C161.517 594.292 162.365 593.565 163.411 593.565C164.457 593.565 165.305 594.292 165.305 595.188Z" fill="#E9FFFF"/>
<path d="M189.756 591.131C189.756 592.117 188.908 592.916 187.862 592.916C186.816 592.916 185.968 592.117 185.968 591.131C185.968 590.146 186.816 589.346 187.862 589.346C188.908 589.346 189.756 590.146 189.756 591.131Z" fill="#E9FFFF"/>
<path d="M362.45 612.357C362.45 621.498 354.587 628.908 344.886 628.908C335.186 628.908 327.323 621.498 327.323 612.357C327.323 603.217 335.186 595.807 344.886 595.807C354.587 595.807 362.45 603.217 362.45 612.357Z" fill="#BCE9EB"/>
<path d="M346.061 595.807C366.63 596.466 369.846 628.302 344.085 628.575C343.447 628.593 342.796 628.581 342.131 628.537C342.8 628.569 343.451 628.582 344.085 628.575C362.994 628.04 369.904 601.03 346.061 595.807Z" fill="#59ABAC"/>
<path d="M329.273 616.576C325.698 609.506 332.492 591.661 351.085 598.732C344.649 597.26 329.631 597.385 329.273 616.576Z" fill="white"/>
<path d="M340.874 625.556C334.68 624.84 335.211 623.662 336.175 623.551C346.585 622.215 351.115 618.094 352.079 616.2C354.609 611.857 353.825 609.367 352.802 606.845C351.718 604.172 349.664 602.086 351.356 601.499C354.248 600.497 356.908 604.057 357.501 605.509C363.646 620.544 349.549 626.558 340.874 625.556Z" fill="#9DDADA"/>
<path d="M359.706 609.437C360.806 613.606 359.706 623.972 348.33 625.662C351.633 624.842 360.439 618.226 359.706 609.437Z" fill="white"/>
<path d="M341.787 609.924C341.787 612.522 339.474 614.629 336.621 614.629C333.768 614.629 331.455 612.522 331.455 609.924C331.455 607.325 333.768 605.218 336.621 605.218C339.474 605.218 341.787 607.325 341.787 609.924Z" fill="#E9FFFF"/>
<path d="M355.907 617.712C355.907 619.773 354.134 621.444 351.946 621.444C349.759 621.444 347.986 619.773 347.986 617.712C347.986 615.651 349.759 613.98 351.946 613.98C354.134 613.98 355.907 615.651 355.907 617.712Z" fill="#E9FFFF"/>
<path d="M334.555 616.252C334.555 617.148 333.707 617.874 332.661 617.874C331.615 617.874 330.767 617.148 330.767 616.252C330.767 615.355 331.615 614.629 332.661 614.629C333.707 614.629 334.555 615.355 334.555 616.252Z" fill="#E9FFFF"/>
<path d="M359.006 612.195C359.006 613.181 358.158 613.98 357.112 613.98C356.066 613.98 355.218 613.181 355.218 612.195C355.218 611.209 356.066 610.41 357.112 610.41C358.158 610.41 359.006 611.209 359.006 612.195Z" fill="#E9FFFF"/>
<path d="M167.653 216.657C167.653 221.643 163.364 225.685 158.073 225.685C152.782 225.685 148.493 221.643 148.493 216.657C148.493 211.672 152.782 207.63 158.073 207.63C163.364 207.63 167.653 211.672 167.653 216.657Z" fill="#BCE9EB"/>
<path d="M158.713 207.63C169.933 207.989 171.687 225.354 157.636 225.503C157.288 225.513 156.933 225.506 156.57 225.482C156.935 225.5 157.29 225.507 157.636 225.503C167.95 225.211 171.719 210.478 158.713 207.63Z" fill="#59ABAC"/>
<path d="M149.557 218.958C147.606 215.102 151.312 205.368 161.454 209.225C157.943 208.422 149.752 208.49 149.557 218.958Z" fill="white"/>
<path d="M155.884 223.856C152.506 223.466 152.795 222.824 153.321 222.763C158.999 222.034 161.471 219.786 161.996 218.753C163.376 216.384 162.949 215.026 162.391 213.651C161.799 212.193 160.679 211.055 161.602 210.735C163.179 210.188 164.63 212.13 164.954 212.922C168.305 221.123 160.616 224.403 155.884 223.856Z" fill="#9DDADA"/>
<path d="M166.156 215.064C166.757 217.338 166.156 222.993 159.951 223.915C161.753 223.467 166.556 219.858 166.156 215.064Z" fill="white"/>
<path d="M156.382 215.33C156.382 216.747 155.121 217.896 153.565 217.896C152.008 217.896 150.747 216.747 150.747 215.33C150.747 213.912 152.008 212.763 153.565 212.763C155.121 212.763 156.382 213.912 156.382 215.33Z" fill="#E9FFFF"/>
<path d="M164.084 219.578C164.084 220.702 163.117 221.613 161.924 221.613C160.731 221.613 159.764 220.702 159.764 219.578C159.764 218.454 160.731 217.542 161.924 217.542C163.117 217.542 164.084 218.454 164.084 219.578Z" fill="#E9FFFF"/>
<path d="M152.438 218.781C152.438 219.27 151.975 219.666 151.404 219.666C150.834 219.666 150.371 219.27 150.371 218.781C150.371 218.293 150.834 217.896 151.404 217.896C151.975 217.896 152.438 218.293 152.438 218.781Z" fill="#E9FFFF"/>
<path d="M165.775 216.569C165.775 217.106 165.312 217.542 164.741 217.542C164.171 217.542 163.708 217.106 163.708 216.569C163.708 216.031 164.171 215.595 164.741 215.595C165.312 215.595 165.775 216.031 165.775 216.569Z" fill="#E9FFFF"/>
<path d="M314.549 475.442C314.549 480.428 310.26 484.469 304.969 484.469C299.678 484.469 295.389 480.428 295.389 475.442C295.389 470.456 299.678 466.415 304.969 466.415C310.26 466.415 314.549 470.456 314.549 475.442Z" fill="#BCE9EB"/>
<path d="M305.609 466.415C316.829 466.774 318.583 484.139 304.532 484.288C304.184 484.298 303.829 484.291 303.466 484.267C303.831 484.285 304.186 484.292 304.532 484.288C314.846 483.996 318.615 469.263 305.609 466.415Z" fill="#59ABAC"/>
<path d="M296.453 477.743C294.502 473.887 298.208 464.153 308.35 468.01C304.839 467.207 296.648 467.275 296.453 477.743Z" fill="white"/>
<path d="M302.78 482.641C299.402 482.251 299.691 481.608 300.217 481.548C305.895 480.819 308.367 478.571 308.892 477.538C310.272 475.169 309.845 473.811 309.287 472.435C308.695 470.977 307.575 469.839 308.498 469.519C310.075 468.973 311.526 470.914 311.85 471.706C315.202 479.908 307.512 483.188 302.78 482.641Z" fill="#9DDADA"/>
<path d="M313.052 473.849C313.653 476.123 313.052 481.778 306.847 482.699C308.649 482.252 313.452 478.643 313.052 473.849Z" fill="white"/>
<path d="M303.278 474.115C303.278 475.532 302.017 476.681 300.461 476.681C298.904 476.681 297.643 475.532 297.643 474.115C297.643 472.697 298.904 471.548 300.461 471.548C302.017 471.548 303.278 472.697 303.278 474.115Z" fill="#E9FFFF"/>
<path d="M310.98 478.363C310.98 479.487 310.013 480.398 308.82 480.398C307.627 480.398 306.66 479.487 306.66 478.363C306.66 477.239 307.627 476.327 308.82 476.327C310.013 476.327 310.98 477.239 310.98 478.363Z" fill="#E9FFFF"/>
<path d="M299.334 477.566C299.334 478.055 298.871 478.451 298.3 478.451C297.73 478.451 297.267 478.055 297.267 477.566C297.267 477.077 297.73 476.681 298.3 476.681C298.871 476.681 299.334 477.077 299.334 477.566Z" fill="#E9FFFF"/>
<path d="M312.671 475.354C312.671 475.891 312.208 476.327 311.638 476.327C311.067 476.327 310.604 475.891 310.604 475.354C310.604 474.816 311.067 474.38 311.638 474.38C312.208 474.38 312.671 474.816 312.671 475.354Z" fill="#E9FFFF"/>
<path d="M295.389 547.661C295.389 552.647 291.1 556.689 285.809 556.689C280.518 556.689 276.228 552.647 276.228 547.661C276.228 542.676 280.518 538.634 285.809 538.634C291.1 538.634 295.389 542.676 295.389 547.661Z" fill="#BCE9EB"/>
<path d="M286.449 538.634C297.669 538.993 299.423 556.358 285.372 556.507C285.024 556.517 284.668 556.51 284.306 556.486C284.671 556.504 285.026 556.511 285.372 556.507C295.685 556.215 299.455 541.482 286.449 538.634Z" fill="#59ABAC"/>
<path d="M277.292 549.962C275.342 546.106 279.048 536.372 289.19 540.229C285.679 539.426 277.488 539.494 277.292 549.962Z" fill="white"/>
<path d="M283.62 554.86C280.241 554.47 280.531 553.828 281.057 553.767C286.735 553.038 289.206 550.79 289.732 549.757C291.112 547.388 290.684 546.03 290.126 544.655C289.535 543.197 288.415 542.058 289.338 541.739C290.915 541.192 292.366 543.134 292.689 543.925C296.041 552.127 288.352 555.407 283.62 554.86Z" fill="#9DDADA"/>
<path d="M293.892 546.068C294.492 548.342 293.892 553.997 287.687 554.919C289.488 554.471 294.292 550.862 293.892 546.068Z" fill="white"/>
<path d="M284.118 546.334C284.118 547.751 282.856 548.9 281.3 548.9C279.744 548.9 278.483 547.751 278.483 546.334C278.483 544.916 279.744 543.767 281.3 543.767C282.856 543.767 284.118 544.916 284.118 546.334Z" fill="#E9FFFF"/>
<path d="M291.82 550.582C291.82 551.706 290.853 552.617 289.659 552.617C288.466 552.617 287.499 551.706 287.499 550.582C287.499 549.458 288.466 548.546 289.659 548.546C290.853 548.546 291.82 549.458 291.82 550.582Z" fill="#E9FFFF"/>
<path d="M280.173 549.785C280.173 550.274 279.711 550.67 279.14 550.67C278.569 550.67 278.107 550.274 278.107 549.785C278.107 549.297 278.569 548.9 279.14 548.9C279.711 548.9 280.173 549.297 280.173 549.785Z" fill="#E9FFFF"/>
<path d="M293.51 547.573C293.51 548.11 293.048 548.546 292.477 548.546C291.907 548.546 291.444 548.11 291.444 547.573C291.444 547.035 291.907 546.599 292.477 546.599C293.048 546.599 293.51 547.035 293.51 547.573Z" fill="#E9FFFF"/>
<path d="M1643 318.967C1643 323.953 1638.71 327.995 1633.42 327.995C1628.13 327.995 1623.84 323.953 1623.84 318.967C1623.84 313.982 1628.13 309.94 1633.42 309.94C1638.71 309.94 1643 313.982 1643 318.967Z" fill="#BCE9EB"/>
<path d="M1634.06 309.94C1645.28 310.299 1647.03 327.664 1632.98 327.813C1632.64 327.823 1632.28 327.817 1631.92 327.793C1632.28 327.81 1632.64 327.817 1632.98 327.813C1643.3 327.521 1647.07 312.789 1634.06 309.94Z" fill="#59ABAC"/>
<path d="M1624.9 321.269C1622.95 317.412 1626.66 307.679 1636.8 311.535C1633.29 310.733 1625.1 310.801 1624.9 321.269Z" fill="white"/>
<path d="M1631.23 326.167C1627.85 325.776 1628.14 325.134 1628.67 325.073C1634.35 324.344 1636.82 322.096 1637.34 321.064C1638.72 318.694 1638.3 317.337 1637.74 315.961C1637.15 314.503 1636.03 313.365 1636.95 313.045C1638.53 312.498 1639.98 314.44 1640.3 315.232C1643.65 323.433 1635.96 326.713 1631.23 326.167Z" fill="#9DDADA"/>
<path d="M1641.5 317.374C1642.1 319.648 1641.5 325.303 1635.3 326.225C1637.1 325.777 1641.9 322.168 1641.5 317.374Z" fill="white"/>
<path d="M1631.73 317.64C1631.73 319.057 1630.47 320.207 1628.91 320.207C1627.36 320.207 1626.09 319.057 1626.09 317.64C1626.09 316.222 1627.36 315.073 1628.91 315.073C1630.47 315.073 1631.73 316.222 1631.73 317.64Z" fill="#E9FFFF"/>
<path d="M1639.43 321.888C1639.43 323.012 1638.46 323.924 1637.27 323.924C1636.08 323.924 1635.11 323.012 1635.11 321.888C1635.11 320.764 1636.08 319.853 1637.27 319.853C1638.46 319.853 1639.43 320.764 1639.43 321.888Z" fill="#E9FFFF"/>
<path d="M1627.78 321.092C1627.78 321.58 1627.32 321.977 1626.75 321.977C1626.18 321.977 1625.72 321.58 1625.72 321.092C1625.72 320.603 1626.18 320.207 1626.75 320.207C1627.32 320.207 1627.78 320.603 1627.78 321.092Z" fill="#E9FFFF"/>
<path d="M1641.12 318.879C1641.12 319.417 1640.66 319.853 1640.09 319.853C1639.52 319.853 1639.06 319.417 1639.06 318.879C1639.06 318.341 1639.52 317.905 1640.09 317.905C1640.66 317.905 1641.12 318.341 1641.12 318.879Z" fill="#E9FFFF"/>
<path d="M1112.9 260.29C1112.9 267.768 1106.46 273.831 1098.53 273.831C1090.59 273.831 1084.16 267.768 1084.16 260.29C1084.16 252.811 1090.59 246.748 1098.53 246.748C1106.46 246.748 1112.9 252.811 1112.9 260.29Z" fill="#BCE9EB"/>
<path d="M1099.49 246.748C1116.32 247.287 1118.95 273.335 1097.87 273.559C1097.35 273.573 1096.82 273.563 1096.27 273.527C1096.82 273.554 1097.35 273.564 1097.87 273.559C1113.34 273.12 1119 251.021 1099.49 246.748Z" fill="#59ABAC"/>
<path d="M1085.75 263.741C1082.83 257.956 1088.39 243.356 1103.6 249.141C1098.33 247.937 1086.05 248.039 1085.75 263.741Z" fill="white"/>
<path d="M1095.24 271.088C1090.18 270.503 1090.61 269.539 1091.4 269.448C1099.92 268.355 1103.62 264.983 1104.41 263.434C1106.48 259.88 1105.84 257.843 1105 255.779C1104.12 253.593 1102.44 251.885 1103.82 251.406C1106.19 250.585 1108.36 253.498 1108.85 254.686C1113.88 266.988 1102.34 271.908 1095.24 271.088Z" fill="#9DDADA"/>
<path d="M1110.65 257.9C1111.55 261.311 1110.65 269.793 1101.34 271.176C1104.05 270.504 1111.25 265.091 1110.65 257.9Z" fill="white"/>
<path d="M1095.99 258.298C1095.99 260.424 1094.1 262.148 1091.76 262.148C1089.43 262.148 1087.54 260.424 1087.54 258.298C1087.54 256.172 1089.43 254.448 1091.76 254.448C1094.1 254.448 1095.99 256.172 1095.99 258.298Z" fill="#E9FFFF"/>
<path d="M1107.54 264.67C1107.54 266.357 1106.09 267.724 1104.3 267.724C1102.51 267.724 1101.06 266.357 1101.06 264.67C1101.06 262.984 1102.51 261.617 1104.3 261.617C1106.09 261.617 1107.54 262.984 1107.54 264.67Z" fill="#E9FFFF"/>
<path d="M1090.07 263.476C1090.07 264.209 1089.38 264.803 1088.52 264.803C1087.67 264.803 1086.97 264.209 1086.97 263.476C1086.97 262.742 1087.67 262.148 1088.52 262.148C1089.38 262.148 1090.07 262.742 1090.07 263.476Z" fill="#E9FFFF"/>
<path d="M1110.08 260.157C1110.08 260.963 1109.39 261.617 1108.53 261.617C1107.67 261.617 1106.98 260.963 1106.98 260.157C1106.98 259.35 1107.67 258.696 1108.53 258.696C1109.39 258.696 1110.08 259.35 1110.08 260.157Z" fill="#E9FFFF"/>
<path d="M1301.31 207.63C1301.31 212.616 1297.02 216.657 1291.73 216.657C1286.44 216.657 1282.15 212.616 1282.15 207.63C1282.15 202.644 1286.44 198.602 1291.73 198.602C1297.02 198.602 1301.31 202.644 1301.31 207.63Z" fill="#BCE9EB"/>
<path d="M1292.37 198.602C1303.59 198.962 1305.34 216.327 1291.29 216.476C1290.94 216.486 1290.59 216.479 1290.22 216.455C1290.59 216.473 1290.94 216.479 1291.29 216.476C1301.6 216.184 1305.37 201.451 1292.37 198.602Z" fill="#59ABAC"/>
<path d="M1283.21 209.931C1281.26 206.074 1284.97 196.341 1295.11 200.198C1291.6 199.395 1283.41 199.463 1283.21 209.931Z" fill="white"/>
<path d="M1289.54 214.829C1286.16 214.439 1286.45 213.796 1286.98 213.735C1292.65 213.006 1295.12 210.759 1295.65 209.726C1297.03 207.357 1296.6 205.999 1296.04 204.623C1295.45 203.165 1294.33 202.027 1295.26 201.707C1296.83 201.16 1298.28 203.102 1298.61 203.894C1301.96 212.095 1294.27 215.376 1289.54 214.829Z" fill="#9DDADA"/>
<path d="M1299.81 206.037C1300.41 208.311 1299.81 213.965 1293.61 214.887C1295.41 214.44 1300.21 210.831 1299.81 206.037Z" fill="white"/>
<path d="M1290.04 206.302C1290.04 207.72 1288.78 208.869 1287.22 208.869C1285.66 208.869 1284.4 207.72 1284.4 206.302C1284.4 204.885 1285.66 203.736 1287.22 203.736C1288.78 203.736 1290.04 204.885 1290.04 206.302Z" fill="#E9FFFF"/>
<path d="M1297.74 210.55C1297.74 211.675 1296.77 212.586 1295.58 212.586C1294.38 212.586 1293.42 211.675 1293.42 210.55C1293.42 209.426 1294.38 208.515 1295.58 208.515C1296.77 208.515 1297.74 209.426 1297.74 210.55Z" fill="#E9FFFF"/>
<path d="M1286.09 209.754C1286.09 210.243 1285.63 210.639 1285.06 210.639C1284.49 210.639 1284.03 210.243 1284.03 209.754C1284.03 209.265 1284.49 208.869 1285.06 208.869C1285.63 208.869 1286.09 209.265 1286.09 209.754Z" fill="#E9FFFF"/>
<path d="M1299.43 207.541C1299.43 208.079 1298.97 208.515 1298.4 208.515C1297.83 208.515 1297.36 208.079 1297.36 207.541C1297.36 207.004 1297.83 206.568 1298.4 206.568C1298.97 206.568 1299.43 207.004 1299.43 207.541Z" fill="#E9FFFF"/>
<path d="M1227.86 264.803C1227.86 269.789 1223.57 273.831 1218.28 273.831C1212.99 273.831 1208.7 269.789 1208.7 264.803C1208.7 259.818 1212.99 255.776 1218.28 255.776C1223.57 255.776 1227.86 259.818 1227.86 264.803Z" fill="#BCE9EB"/>
<path d="M1218.92 255.776C1230.14 256.135 1231.89 273.5 1217.84 273.649C1217.49 273.659 1217.14 273.652 1216.78 273.628C1217.14 273.646 1217.5 273.653 1217.84 273.649C1228.16 273.357 1231.93 258.625 1218.92 255.776Z" fill="#59ABAC"/>
<path d="M1209.76 267.104C1207.81 263.248 1211.52 253.514 1221.66 257.371C1218.15 256.568 1209.96 256.636 1209.76 267.104Z" fill="white"/>
<path d="M1216.09 272.002C1212.71 271.612 1213 270.97 1213.53 270.909C1219.21 270.18 1221.68 267.932 1222.2 266.899C1223.58 264.53 1223.16 263.172 1222.6 261.797C1222.01 260.339 1220.89 259.201 1221.81 258.881C1223.39 258.334 1224.84 260.276 1225.16 261.068C1228.51 269.269 1220.82 272.549 1216.09 272.002Z" fill="#9DDADA"/>
<path d="M1226.36 263.21C1226.96 265.484 1226.36 271.139 1220.16 272.061C1221.96 271.613 1226.76 268.004 1226.36 263.21Z" fill="white"/>
<path d="M1216.59 263.476C1216.59 264.893 1215.33 266.042 1213.77 266.042C1212.21 266.042 1210.95 264.893 1210.95 263.476C1210.95 262.058 1212.21 260.909 1213.77 260.909C1215.33 260.909 1216.59 262.058 1216.59 263.476Z" fill="#E9FFFF"/>
<path d="M1224.29 267.724C1224.29 268.848 1223.32 269.759 1222.13 269.759C1220.94 269.759 1219.97 268.848 1219.97 267.724C1219.97 266.6 1220.94 265.688 1222.13 265.688C1223.32 265.688 1224.29 266.6 1224.29 267.724Z" fill="#E9FFFF"/>
<path d="M1212.64 266.927C1212.64 267.416 1212.18 267.812 1211.61 267.812C1211.04 267.812 1210.58 267.416 1210.58 266.927C1210.58 266.439 1211.04 266.042 1211.61 266.042C1212.18 266.042 1212.64 266.439 1212.64 266.927Z" fill="#E9FFFF"/>
<path d="M1225.98 264.715C1225.98 265.252 1225.52 265.688 1224.95 265.688C1224.38 265.688 1223.91 265.252 1223.91 264.715C1223.91 264.177 1224.38 263.741 1224.95 263.741C1225.52 263.741 1225.98 264.177 1225.98 264.715Z" fill="#E9FFFF"/>
<path d="M1262.99 643.953C1262.99 648.939 1258.7 652.981 1253.41 652.981C1248.12 652.981 1243.83 648.939 1243.83 643.953C1243.83 638.968 1248.12 634.926 1253.41 634.926C1258.7 634.926 1262.99 638.968 1262.99 643.953Z" fill="#BCE9EB"/>
<path d="M1254.05 634.926C1265.27 635.285 1267.02 652.65 1252.97 652.799C1252.62 652.809 1252.27 652.802 1251.9 652.778C1252.27 652.796 1252.62 652.803 1252.97 652.799C1263.28 652.507 1267.05 637.775 1254.05 634.926Z" fill="#59ABAC"/>
<path d="M1244.89 646.254C1242.94 642.398 1246.65 632.665 1256.79 636.521C1253.28 635.718 1245.09 635.787 1244.89 646.254Z" fill="white"/>
<path d="M1251.22 651.152C1247.84 650.762 1248.13 650.12 1248.65 650.059C1254.33 649.33 1256.8 647.082 1257.33 646.049C1258.71 643.68 1258.28 642.322 1257.72 640.947C1257.13 639.489 1256.01 638.351 1256.94 638.031C1258.51 637.484 1259.96 639.426 1260.29 640.218C1263.64 648.419 1255.95 651.699 1251.22 651.152Z" fill="#9DDADA"/>
<path d="M1261.49 642.36C1262.09 644.634 1261.49 650.289 1255.28 651.211C1257.09 650.763 1261.89 647.154 1261.49 642.36Z" fill="white"/>
<path d="M1251.72 642.626C1251.72 644.043 1250.45 645.192 1248.9 645.192C1247.34 645.192 1246.08 644.043 1246.08 642.626C1246.08 641.208 1247.34 640.059 1248.9 640.059C1250.45 640.059 1251.72 641.208 1251.72 642.626Z" fill="#E9FFFF"/>
<path d="M1259.42 646.874C1259.42 647.998 1258.45 648.909 1257.26 648.909C1256.06 648.909 1255.1 647.998 1255.1 646.874C1255.1 645.75 1256.06 644.838 1257.26 644.838C1258.45 644.838 1259.42 645.75 1259.42 646.874Z" fill="#E9FFFF"/>
<path d="M1247.77 646.077C1247.77 646.566 1247.31 646.962 1246.74 646.962C1246.17 646.962 1245.7 646.566 1245.7 646.077C1245.7 645.589 1246.17 645.192 1246.74 645.192C1247.31 645.192 1247.77 645.589 1247.77 646.077Z" fill="#E9FFFF"/>
<path d="M1261.11 643.865C1261.11 644.402 1260.65 644.838 1260.07 644.838C1259.5 644.838 1259.04 644.402 1259.04 643.865C1259.04 643.327 1259.5 642.891 1260.07 642.891C1260.65 642.891 1261.11 643.327 1261.11 643.865Z" fill="#E9FFFF"/>
<path d="M247.544 946.044C254.506 946.567 257.731 948.626 259.365 948.715C259.56 948.685 259.76 948.655 259.965 948.626C268.613 947.405 285.861 947.275 276.274 945.608C266.459 943.901 270.577 938.965 273.742 935.864C282.574 929.107 283.462 922.508 280.16 918.542C269.921 906.242 271.456 899.951 273.335 898.536L273.504 898.294C278.228 891.573 285.091 881.81 274.382 874.778C263.543 867.662 264.595 860.977 266.476 858.524C268.587 853.246 273.405 845.181 268.866 839.599C263.072 832.473 261.946 826.266 263.01 823.256C265.125 818.076 268.497 804.996 265.057 794.12C260.757 780.525 257.432 780.373 253.033 767.968C249.513 758.044 253.441 750.512 255.845 747.987C267.143 736.776 264.511 728.197 255.127 733.347C227.437 748.542 229.205 772.809 233.551 783.043C239.056 790.065 248.808 808.758 243.78 827.353C238.751 845.949 243.033 862.607 245.802 868.612C250.425 874.833 258.365 888.991 253.141 895.858C246.61 904.441 250.284 923.407 251.745 925.41C253.947 928.426 256.473 934.837 255.772 936.646C255.211 938.093 254.067 937.313 253.565 936.742C254.965 929.864 245.456 929.24 245.435 928.797C245.413 928.353 247.159 925.313 236.652 920.435C226.145 915.557 228.134 911.025 228.112 910.581C228.075 909.827 229.479 906.224 226.023 903.41C210.447 890.727 215.469 874.008 215.907 867.839C216.561 858.622 208.96 848.579 205.05 839.709C201.139 830.839 205.02 826.224 197.274 826.117C191.078 826.031 192.677 835.456 194.015 840.189C197.889 848.32 205.658 858.248 202.609 870.492C199.177 884.276 197.683 894.616 198.29 898.393C200.48 907.634 212.412 925.462 229.004 928.771C245.595 932.08 252.421 938.125 253.76 940.735C250.233 941.827 241.638 943.515 235.474 941.531C227.77 939.05 199.083 933.926 215.583 941.803C232.083 949.681 237.554 945.293 247.544 946.044Z" fill="url(#paint0_linear_3318_9800)"/>
<path d="M301.404 944.3C297.363 944.575 288.908 943.985 287.421 939.426C285.934 934.867 292.935 932.665 296.345 931.331C300.041 929.392 303.957 922.908 296.501 915.171C287.18 905.499 287.932 904.725 293.723 893.951C299.514 883.177 288.977 877.708 286.073 873.24C283.168 868.772 282.7 852.787 290.198 844.607C297.696 836.426 303.951 835.116 302.526 825.397C301.102 815.678 288.629 806.144 290.497 789.464C291.991 776.121 299.22 772.98 302.648 773.078C304.53 772.799 308.408 774.576 308.866 783.922C309.439 795.605 312.47 796.214 313.411 799.285C315.605 806.451 312.725 804.628 313.182 813.967C313.487 820.178 316.654 820.336 318.548 823.514C320.441 826.692 330.795 838.097 313.596 861.076C309.953 865.942 309.434 876.076 314.339 882.68C316.496 886.933 323.943 900.556 315.781 912.109C305.736 926.328 306.87 922.078 305.874 929.138C305.053 934.953 309.224 936.254 312.076 936.426C315.088 936.641 322.794 935.278 329.52 928.109C337.927 919.148 331.002 913.225 332.676 908.706C335.795 900.285 341.157 904.484 341.411 896.766C341.884 882.37 333.083 881.568 332.583 871.364C332.496 869.589 332.765 866.288 337.872 860.019C341.001 856.178 336.281 849.566 335.285 845.905C334.129 841.657 333.853 839.268 339.291 834.171C340.045 833.446 341.457 831.32 341.072 828.61C340.59 825.222 345.513 825.749 348.432 830.513C351.351 835.276 352.044 844.376 349.925 860.976C349.354 865.447 354.834 874.101 358.769 877.041C362.239 880.151 362.301 885.483 359.552 893.013C358.716 895.302 354.496 907.729 356.677 914.923C358.184 919.896 351 924.803 345.999 925.91C342.582 927.096 341.051 931.312 341.913 936.017C342.776 940.722 333.546 940.432 328.824 939.699C327.503 939.608 324.533 939.826 323.221 941.424C321.582 943.422 311.946 946.657 301.404 944.3Z" fill="url(#paint1_linear_3318_9800)"/>
<path d="M1134.31 908.475C1141.71 909.445 1145.02 911.843 1146.76 912.035C1146.97 912.014 1147.19 911.994 1147.41 911.975C1156.73 911.17 1175.18 912.042 1165.04 909.69C1154.66 907.283 1159.39 902.226 1162.97 899.081C1172.86 892.345 1174.24 885.313 1170.97 880.862C1160.84 867.059 1162.89 860.395 1165 858.985L1165.19 858.736C1170.68 851.798 1178.66 841.719 1167.68 833.543C1156.56 825.269 1158.13 818.154 1160.3 815.631C1162.9 810.088 1168.58 801.714 1164.1 795.455C1158.38 787.466 1157.58 780.737 1158.92 777.567C1161.52 772.13 1165.98 758.287 1163.02 746.41C1159.32 731.563 1155.78 731.206 1151.89 717.631C1148.78 706.771 1153.48 698.916 1156.21 696.346C1169.03 684.972 1166.78 675.609 1156.41 680.587C1125.82 695.277 1126.11 721.431 1130.08 732.672C1135.5 740.533 1144.69 761.171 1138.09 780.839C1131.5 800.507 1134.98 818.641 1137.54 825.249C1142.07 832.198 1149.63 847.862 1143.59 854.928C1136.05 863.759 1138.72 884.334 1140.15 886.57C1142.31 889.937 1144.59 896.967 1143.72 898.868C1143.02 900.389 1141.85 899.484 1141.35 898.842C1143.3 891.54 1133.18 890.314 1133.19 889.836C1133.19 889.359 1135.26 886.198 1124.35 880.346C1113.44 874.493 1115.87 869.744 1115.87 869.267C1115.88 868.455 1117.62 864.669 1114.11 861.447C1098.3 846.918 1104.77 829.264 1105.64 822.667C1106.95 812.811 1099.48 801.585 1095.89 791.834C1092.29 782.083 1096.75 777.356 1088.47 776.787C1081.86 776.332 1082.95 786.543 1084.06 791.703C1087.67 800.658 1095.32 811.771 1091.25 824.737C1086.68 839.332 1084.4 850.345 1084.8 854.435C1086.54 864.484 1098.11 884.321 1115.63 888.846C1133.14 893.37 1140.04 900.26 1141.3 903.14C1137.46 904.105 1128.16 905.414 1121.7 902.923C1113.63 899.808 1083.31 892.627 1100.43 902.05C1117.54 911.473 1123.68 907.083 1134.31 908.475Z" fill="url(#paint2_linear_3318_9800)"/>
<path d="M1191.98 909.759C1187.65 909.817 1178.65 908.688 1177.36 903.707C1176.07 898.725 1183.7 896.772 1187.43 895.54C1191.51 893.675 1196.12 886.944 1188.66 878.201C1179.33 867.272 1180.19 866.486 1187.09 855.259C1193.99 844.032 1183.08 837.543 1180.27 832.577C1177.46 827.611 1178.02 810.423 1186.57 802.08C1195.12 793.738 1201.89 792.698 1201.01 782.181C1200.13 771.664 1187.42 760.698 1190.52 742.902C1192.99 728.665 1200.92 725.718 1204.58 726.024C1206.61 725.834 1210.64 727.969 1210.51 738.029C1210.36 750.604 1213.56 751.436 1214.36 754.788C1216.23 762.609 1213.27 760.483 1213.15 770.535C1213.07 777.221 1216.44 777.576 1218.25 781.099C1220.07 784.621 1230.38 797.471 1210.49 821.131C1206.28 826.142 1205.05 836.991 1209.86 844.367C1211.89 849.059 1218.95 864.119 1209.47 876.043C1197.8 890.72 1199.29 886.223 1197.76 893.744C1196.5 899.939 1200.87 901.579 1203.91 901.931C1207.11 902.338 1215.44 901.327 1223.1 894.025C1232.67 884.897 1225.66 878.133 1227.75 873.38C1231.63 864.524 1237.09 869.345 1237.87 861.075C1239.32 845.649 1229.97 844.271 1230.1 833.288C1230.13 831.378 1230.63 827.85 1236.5 821.419C1240.1 817.479 1235.49 810.105 1234.67 806.116C1233.71 801.488 1233.58 798.908 1239.72 793.754C1240.58 793.021 1242.22 790.821 1241.99 787.889C1241.7 784.224 1246.93 785.078 1249.73 790.363C1252.54 795.647 1252.68 805.457 1249.32 823.153C1248.42 827.919 1253.7 837.53 1257.72 840.917C1261.22 844.459 1260.94 850.187 1257.5 858.108C1256.46 860.517 1251.13 873.61 1252.99 881.461C1254.27 886.888 1246.27 891.734 1240.85 892.63C1237.12 893.703 1235.21 898.139 1235.82 903.24C1236.43 908.341 1226.59 907.489 1221.59 906.426C1220.18 906.251 1217 906.311 1215.49 907.95C1213.6 909.999 1203.09 912.907 1191.98 909.759Z" fill="url(#paint3_linear_3318_9800)"/>
<path d="M145.944 948.156C148.231 944.633 152.362 936.509 150.589 932.197C148.817 927.884 140.508 918.575 136.575 914.459C133.355 910.58 130.788 905.2 147.265 905.83C157.042 906.203 136.662 884.824 134.553 878.111C132.842 872.667 134.611 870.449 135.077 870.087C135.894 868.438 139.104 866.287 145.418 870.87C145.981 871.279 147.4 871.973 148.566 871.474C150.024 870.852 153.153 867.24 146.642 856.209C140.13 845.179 140.849 842.759 142.307 842.136C143.765 841.514 148.041 842.937 152.317 844.36C156.593 845.783 155.204 834.93 152.803 827.903C146.31 808.902 143.434 806.393 137.894 799.01C132.354 791.627 130.08 773.586 141.625 767.679C143.063 766.902 145.8 766.676 145.24 771.985C144.541 778.621 143.647 791.84 158.788 798.209C160.57 798.802 163.904 798.981 162.987 794.953C161.84 789.918 167.749 792.106 169.731 795.647C171.714 799.187 174.766 803.083 168.993 818.224C164.375 830.337 165.113 837.54 166.059 839.627C166.778 841.27 169.25 842.196 173.386 832.76C178.556 820.964 181.9 839.36 179.12 845.747C176.341 852.135 173.115 859.038 168.761 865.122C165.278 869.99 165.392 873.603 165.885 874.801C166.604 876.444 169.049 878.779 173.076 874.979C178.11 870.228 179.588 873.822 179.763 875.21C179.938 876.598 180.754 883.074 176.245 891.987C172.638 899.118 166.851 905.479 164.408 907.769C162.303 910.022 158.768 915.021 161.474 916.985C164.856 919.44 169.501 915.668 173.077 911.54C176.654 907.413 176.479 906.025 179.064 906.221C181.649 906.416 184.137 909.903 183.593 913.711C183.048 917.518 181.824 919.991 176.46 926.183C171.095 932.374 163.262 939.295 164.604 949.935L155.274 949.045L145.944 948.156Z" fill="#56A03E"/>
<defs>
<linearGradient id="paint0_linear_3318_9800" x1="867.278" y1="1056.93" x2="867.278" y2="114.768" gradientUnits="userSpaceOnUse">
<stop stop-color="#F15C7A"/>
<stop offset="1" stop-color="#FFB48D"/>
</linearGradient>
<linearGradient id="paint1_linear_3318_9800" x1="867.278" y1="1056.93" x2="867.278" y2="114.768" gradientUnits="userSpaceOnUse">
<stop stop-color="#F15C7A"/>
<stop offset="1" stop-color="#FFB48D"/>
</linearGradient>
<linearGradient id="paint2_linear_3318_9800" x1="867.278" y1="1056.93" x2="867.278" y2="114.768" gradientUnits="userSpaceOnUse">
<stop stop-color="#F15C7A"/>
<stop offset="1" stop-color="#FFB48D"/>
</linearGradient>
<linearGradient id="paint3_linear_3318_9800" x1="867.278" y1="1056.93" x2="867.278" y2="114.768" gradientUnits="userSpaceOnUse">
<stop stop-color="#F15C7A"/>
<stop offset="1" stop-color="#FFB48D"/>
</linearGradient>
</defs>
</svg>
