<svg width="1931" height="1189" viewBox="0 0 1931 1189" fill="none" xmlns="http://www.w3.org/2000/svg">
<path d="M11 1076.78V852.275C102.682 831.045 302.838 823.853 410.261 852.275C548.671 888.895 1159.27 929.891 1205.23 933.477C1246.05 936.662 1706.23 947.276 1931 933.477V1078.37C1698.54 1057.67 1224.75 999.26 1167.97 1001.94C1100.54 1005.13 982.628 1020.7 914.216 1030.6C859.207 1038.56 288.412 1063.51 11 1076.78Z" fill="#45BAF1" fill-opacity="0.36"/>
<path d="M12.7745 149.43L451.074 1059.26H312.664L12.7745 149.43Z" fill="#78D6FF" fill-opacity="0.34"/>
<path d="M80.1237 121.196L1148.45 1006.72L901.664 1045.4L80.1237 121.196Z" fill="#78D6FF" fill-opacity="0.34"/>
<path d="M235.606 149.43L1921.01 1052.63L1548.17 1186.27L235.606 149.43Z" fill="#78D6FF" fill-opacity="0.34"/>
<path d="M51.8133 164.335L758.061 1046.96L636.088 1042.43L51.8133 164.335Z" fill="#78D6FF" fill-opacity="0.34"/>
<path d="M449.299 109L1925.68 801.217V957.252L449.299 109Z" fill="#78D6FF" fill-opacity="0.34"/>
<path d="M12.7745 1189V1076.27C313.577 1047.86 761.22 1055.96 1036.12 1015.79C1318.32 974.547 1682.17 1076.27 1929.23 1076.27V1189H12.7745Z" fill="#F9D984"/>
<path d="M782.904 1082.95C782.904 1084.59 778.932 1085.93 774.031 1085.93C769.131 1085.93 765.159 1084.59 765.159 1082.95C765.159 1081.3 769.131 1079.96 774.031 1079.96C778.932 1079.96 782.904 1081.3 782.904 1082.95Z" fill="#E5AD5E"/>
<path d="M591.259 1098.87C591.259 1100.52 587.286 1101.85 582.386 1101.85C577.486 1101.85 573.514 1100.52 573.514 1098.87C573.514 1097.22 577.486 1095.88 582.386 1095.88C587.286 1095.88 591.259 1097.22 591.259 1098.87Z" fill="#E5AD5E"/>
<path d="M900.329 1111.15C843.464 1114.05 732.104 1142.51 683.532 1156.39H1929.23V1076.78C1871.18 1099.69 1890.13 1122.01 1719.54 1132.86C1684.07 1135.12 1413.89 1105.72 1373.02 1105.72C1332.15 1105.72 1191.76 1123.82 1150.89 1123.82C1127.52 1123.82 971.41 1107.53 900.329 1111.15Z" fill="#FBA55C"/>
<path d="M818.394 1075.18C818.394 1077.82 812.038 1079.96 804.198 1079.96C796.358 1079.96 790.002 1077.82 790.002 1075.18C790.002 1072.55 796.358 1070.41 804.198 1070.41C812.038 1070.41 818.394 1072.55 818.394 1075.18Z" fill="#E5AD5E"/>
<path d="M780.538 1067.22C780.538 1068.98 776.301 1070.41 771.074 1070.41C765.847 1070.41 761.61 1068.98 761.61 1067.22C761.61 1065.46 765.847 1064.04 771.074 1064.04C776.301 1064.04 780.538 1065.46 780.538 1067.22Z" fill="#E5AD5E"/>
<path d="M425.64 1092.7C425.64 1094.46 421.402 1095.88 416.176 1095.88C410.949 1095.88 406.712 1094.46 406.712 1092.7C406.712 1090.94 410.949 1089.51 416.176 1089.51C421.402 1089.51 425.64 1090.94 425.64 1092.7Z" fill="#E5AD5E"/>
<path d="M276.582 1114.99C276.582 1116.75 272.345 1118.17 267.118 1118.17C261.891 1118.17 257.654 1116.75 257.654 1114.99C257.654 1113.23 261.891 1111.8 267.118 1111.8C272.345 1111.8 276.582 1113.23 276.582 1114.99Z" fill="#E5AD5E"/>
<path d="M1037.46 1061.43C1037.46 1062.87 1040.93 1064.04 1045.21 1064.04C1049.48 1064.04 1052.95 1062.87 1052.95 1061.43C1052.95 1059.99 1049.48 1058.83 1045.21 1058.83C1040.93 1058.83 1037.46 1059.99 1037.46 1061.43Z" fill="#E5AD5E"/>
<path d="M1013.59 1053.91C1013.59 1055.34 1017.05 1056.51 1021.33 1056.51C1025.61 1056.51 1029.07 1055.34 1029.07 1053.91C1029.07 1052.47 1025.61 1051.3 1021.33 1051.3C1017.05 1051.3 1013.59 1052.47 1013.59 1053.91Z" fill="#E5AD5E"/>
<path d="M1006.49 1069.83C1006.49 1071.27 1009.96 1072.43 1014.23 1072.43C1018.51 1072.43 1021.98 1071.27 1021.98 1069.83C1021.98 1068.39 1018.51 1067.22 1014.23 1067.22C1009.96 1067.22 1006.49 1068.39 1006.49 1069.83Z" fill="#E5AD5E"/>
<path d="M917.765 1057.67C917.765 1059.43 922.003 1060.85 927.229 1060.85C932.456 1060.85 936.693 1059.43 936.693 1057.67C936.693 1055.91 932.456 1054.48 927.229 1054.48C922.003 1054.48 917.765 1055.91 917.765 1057.67Z" fill="#E5AD5E"/>
<path d="M1123.61 1088.93C1123.61 1090.37 1127.07 1091.54 1131.35 1091.54C1135.63 1091.54 1139.09 1090.37 1139.09 1088.93C1139.09 1087.5 1135.63 1086.33 1131.35 1086.33C1127.07 1086.33 1123.61 1087.5 1123.61 1088.93Z" fill="#E5AD5E"/>
<path d="M1325.9 1034.8C1325.9 1036.24 1329.37 1037.4 1333.64 1037.4C1337.92 1037.4 1341.38 1036.24 1341.38 1034.8C1341.38 1033.36 1337.92 1032.19 1333.64 1032.19C1329.37 1032.19 1325.9 1033.36 1325.9 1034.8Z" fill="#E5AD5E"/>
<path d="M1279.76 1069.83C1279.76 1071.27 1283.23 1072.43 1287.5 1072.43C1291.78 1072.43 1295.25 1071.27 1295.25 1069.83C1295.25 1068.39 1291.78 1067.22 1287.5 1067.22C1283.23 1067.22 1279.76 1068.39 1279.76 1069.83Z" fill="#E5AD5E"/>
<path d="M1435.92 1071.42C1435.92 1073.74 1441.5 1075.62 1448.39 1075.62C1455.28 1075.62 1460.87 1073.74 1460.87 1071.42C1460.87 1069.1 1455.28 1067.22 1448.39 1067.22C1441.5 1067.22 1435.92 1069.1 1435.92 1071.42Z" fill="#E5AD5E"/>
<path d="M598.357 1084.16C598.357 1086.48 603.942 1088.36 610.832 1088.36C617.722 1088.36 623.307 1086.48 623.307 1084.16C623.307 1081.84 617.722 1079.96 610.832 1079.96C603.942 1079.96 598.357 1081.84 598.357 1084.16Z" fill="#E5AD5E"/>
<path d="M1183.94 1052.49C1183.94 1053.15 1185.53 1053.69 1187.49 1053.69C1189.45 1053.69 1191.04 1053.15 1191.04 1052.49C1191.04 1051.83 1189.45 1051.3 1187.49 1051.3C1185.53 1051.3 1183.94 1051.83 1183.94 1052.49Z" fill="#E5AD5E"/>
<path d="M1155.55 1053.91C1155.55 1055.34 1159.01 1056.51 1163.29 1056.51C1167.57 1056.51 1171.03 1055.34 1171.03 1053.91C1171.03 1052.47 1167.57 1051.3 1163.29 1051.3C1159.01 1051.3 1155.55 1052.47 1155.55 1053.91Z" fill="#E5AD5E"/>
<path d="M1191.04 1060.27C1191.04 1061.71 1194.5 1062.88 1198.78 1062.88C1203.06 1062.88 1206.52 1061.71 1206.52 1060.27C1206.52 1058.84 1203.06 1057.67 1198.78 1057.67C1194.5 1057.67 1191.04 1058.84 1191.04 1060.27Z" fill="#E5AD5E"/>
<path d="M1159.1 1039.55C1159.1 1041.85 1164.64 1043.72 1171.49 1043.72C1178.33 1043.72 1183.87 1041.85 1183.87 1039.55C1183.87 1037.24 1178.33 1035.38 1171.49 1035.38C1164.64 1035.38 1159.1 1037.24 1159.1 1039.55Z" fill="#E5AD5E"/>
<path d="M1039.53 1047.71C1039.53 1049.25 1043.23 1050.49 1047.79 1050.49C1052.35 1050.49 1056.05 1049.25 1056.05 1047.71C1056.05 1046.18 1052.35 1044.93 1047.79 1044.93C1043.23 1044.93 1039.53 1046.18 1039.53 1047.71Z" fill="#E5AD5E"/>
<path d="M976.412 1024.22L976.323 1024.23C1045.53 1021.05 1205.37 1025.48 1212.33 1024.23C1247.82 1017.86 1634.66 1069.95 1648.86 1073.59C1661.28 1076.78 1865.34 1097.47 1929.23 1076.78C1852.33 1070.94 1688.6 1055.44 1648.86 1046.52C1599.17 1035.38 1276.21 1005.13 1196.36 1001.94C1132.52 999.396 1023.19 1016.78 976.412 1024.22Z" fill="#FFEAB4"/>
<path d="M1848.38 1108.51H1888.62V1148.76H1848.38V1108.51Z" fill="white"/>
<path d="M1888.62 1148.76H1928.86V1189H1888.62V1148.76Z" fill="white"/>
<rect x="1888.62" y="1108.51" width="40.2431" height="40.2431" fill="#404040"/>
<rect x="1848.38" y="1148.76" width="40.2431" height="40.2431" fill="#404040"/>
<path d="M1848.38 1028.03H1888.62V1068.27H1848.38V1028.03Z" fill="white"/>
<path d="M1888.62 1068.27H1928.86V1108.51H1888.62V1068.27Z" fill="white"/>
<rect x="1888.62" y="1028.03" width="40.2431" height="40.2431" fill="#404040"/>
<rect x="1848.38" y="1068.27" width="40.2431" height="40.2431" fill="#404040"/>
<path d="M1848.38 947.541H1888.62V987.785H1848.38V947.541Z" fill="white"/>
<path d="M1888.62 987.785H1928.86V1028.03H1888.62V987.785Z" fill="white"/>
<rect x="1888.62" y="947.541" width="40.2431" height="40.2431" fill="#404040"/>
<rect x="1848.38" y="987.785" width="40.2431" height="40.2431" fill="#404040"/>
<path d="M1848.38 867.055H1888.62V907.298H1848.38V867.055Z" fill="white"/>
<path d="M1888.62 907.298H1928.86V947.541H1888.62V907.298Z" fill="white"/>
<rect x="1888.62" y="867.055" width="40.2431" height="40.2431" fill="#404040"/>
<rect x="1848.38" y="907.298" width="40.2431" height="40.2431" fill="#404040"/>
<path d="M1848.38 786.569H1888.62V826.812H1848.38V786.569Z" fill="white"/>
<path d="M1888.62 826.812H1928.86V867.055H1888.62V826.812Z" fill="white"/>
<rect x="1888.62" y="786.569" width="40.2431" height="40.2431" fill="#404040"/>
<rect x="1848.38" y="826.812" width="40.2431" height="40.2431" fill="#404040"/>
<path d="M1848.38 706.083H1888.62V746.326H1848.38V706.083Z" fill="white"/>
<path d="M1888.62 746.326H1928.86V786.569H1888.62V746.326Z" fill="white"/>
<rect x="1888.62" y="706.083" width="40.2431" height="40.2431" fill="#404040"/>
<rect x="1848.38" y="746.326" width="40.2431" height="40.2431" fill="#404040"/>
<rect x="1848.38" y="482.917" width="80.4862" height="223.166" fill="#DB4646"/>
<path d="M1907.38 680.75C1907.38 682.242 1907.2 683.406 1906.85 684.24C1906.5 685.03 1906.11 685.579 1905.67 685.886C1905.23 686.194 1904.83 686.369 1904.48 686.413C1904.13 686.457 1903.95 686.479 1903.95 686.479C1903.95 686.479 1903.36 686.589 1902.18 686.808C1900.95 686.984 1899.37 687.225 1897.43 687.533C1895.5 687.84 1893.42 688.191 1891.18 688.586C1888.9 688.937 1886.7 689.289 1884.59 689.64C1882.44 689.947 1880.58 690.232 1879 690.496C1877.37 690.759 1876.27 690.957 1875.7 691.089C1874.83 691.264 1874.12 691.22 1873.6 690.957C1873.03 690.65 1872.61 690.276 1872.35 689.837C1872.04 689.354 1871.84 688.937 1871.75 688.586C1871.62 688.191 1871.55 687.993 1871.55 687.993C1871.55 687.993 1871.47 687.445 1871.29 686.347C1871.07 685.206 1870.81 683.801 1870.5 682.133C1870.19 680.464 1869.91 678.752 1869.65 676.996C1869.34 675.24 1869.1 673.704 1868.92 672.386C1868.75 671.069 1868.81 670.038 1869.12 669.291C1869.38 668.545 1869.73 667.996 1870.17 667.645C1870.61 667.294 1871.03 667.074 1871.42 666.987C1871.77 666.899 1871.95 666.855 1871.95 666.855C1871.95 666.855 1872.3 666.811 1873 666.723C1873.71 666.591 1874.54 666.46 1875.51 666.328C1876.43 666.196 1877.31 666.109 1878.14 666.065C1879.37 665.977 1880.38 666.262 1881.17 666.921C1881.96 667.579 1882.46 669.006 1882.68 671.201C1882.82 672.65 1882.66 673.682 1882.22 674.296C1881.78 674.911 1881.32 675.284 1880.84 675.416C1880.36 675.504 1880.12 675.547 1880.12 675.547L1875.77 675.943L1876.16 680.091L1887.49 677.786C1887.49 677.786 1887.49 677.501 1887.49 676.93C1887.49 676.36 1887.56 675.701 1887.69 674.955C1887.78 674.208 1888 673.528 1888.35 672.913C1888.7 672.299 1889.25 671.926 1889.99 671.794C1890.7 671.662 1891.27 671.86 1891.71 672.386C1892.14 672.869 1892.45 673.462 1892.63 674.165C1892.8 674.823 1892.93 675.438 1893.02 676.008C1893.07 676.535 1893.09 676.799 1893.09 676.799C1893.09 676.799 1894.03 676.667 1895.92 676.403C1897.76 676.14 1900.05 675.855 1902.77 675.547C1904.13 675.372 1905.14 675.547 1905.8 676.074C1906.46 676.557 1906.9 677.172 1907.12 677.918C1907.33 678.621 1907.42 679.279 1907.38 679.894C1907.38 680.464 1907.38 680.75 1907.38 680.75ZM1904.02 659.917C1902.53 660.048 1900.66 660.136 1898.42 660.18C1896.14 660.224 1893.7 660.246 1891.11 660.246C1888.52 660.246 1886.02 660.224 1883.61 660.18C1881.15 660.092 1878.97 660.005 1877.09 659.917C1875.2 659.829 1873.84 659.741 1873 659.653C1871.95 659.522 1871.16 659.148 1870.63 658.534C1870.06 657.919 1869.67 657.239 1869.45 656.492C1869.23 655.702 1869.12 655.044 1869.12 654.517C1869.07 653.946 1869.05 653.661 1869.05 653.661C1869.05 653.661 1869.1 653.397 1869.18 652.871C1869.23 652.3 1869.34 651.685 1869.51 651.027C1869.69 650.368 1870 649.907 1870.44 649.644C1871.31 649.073 1872.17 648.81 1873 648.854C1873.79 648.854 1874.83 648.897 1876.1 648.985C1879.39 649.249 1882.62 649.402 1885.78 649.446C1888.94 649.49 1891.82 649.49 1894.41 649.446C1897 649.402 1899.06 649.358 1900.6 649.315C1902.13 649.227 1902.9 649.183 1902.9 649.183C1902.9 649.183 1903.14 649.205 1903.62 649.249C1904.06 649.249 1904.57 649.38 1905.14 649.644C1905.71 649.907 1906.24 650.412 1906.72 651.158C1907.16 651.905 1907.38 653.002 1907.38 654.451C1907.38 655.9 1907.22 657.019 1906.92 657.809C1906.57 658.556 1906.17 659.083 1905.73 659.39C1905.25 659.653 1904.85 659.807 1904.55 659.851C1904.2 659.895 1904.02 659.917 1904.02 659.917ZM1907.38 634.668C1907.38 636.248 1907.2 637.456 1906.85 638.29C1906.46 639.08 1906.02 639.651 1905.53 640.002C1905.01 640.309 1904.57 640.485 1904.22 640.529C1903.82 640.529 1903.62 640.529 1903.62 640.529C1903.62 640.529 1902.97 640.595 1901.65 640.726C1900.33 640.858 1898.64 641.034 1896.58 641.253C1894.47 641.473 1892.23 641.714 1889.86 641.978C1887.45 642.197 1885.14 642.439 1882.95 642.702C1880.71 642.922 1878.82 643.097 1877.28 643.229C1875.7 643.361 1874.72 643.448 1874.32 643.492C1873.18 643.536 1872.19 643.295 1871.36 642.768C1870.48 642.197 1869.97 640.836 1869.84 638.685C1869.75 637.236 1869.97 636.073 1870.5 635.195C1871.03 634.317 1871.58 633.68 1872.15 633.285C1872.67 632.89 1872.94 632.692 1872.94 632.692L1887.95 626.502L1892.5 624.066L1879.98 625.58C1879.98 625.58 1879.26 625.58 1877.81 625.58C1876.36 625.537 1874.63 625.449 1872.61 625.317C1871.6 625.229 1870.83 624.9 1870.3 624.329C1869.78 623.759 1869.4 623.122 1869.18 622.42C1868.96 621.673 1868.85 621.037 1868.85 620.51C1868.81 619.939 1868.79 619.654 1868.79 619.654C1868.79 619.654 1868.81 619.412 1868.85 618.929C1868.9 618.403 1869.1 617.81 1869.45 617.151C1869.75 616.493 1870.33 615.922 1871.16 615.439C1871.95 614.912 1873.11 614.671 1874.65 614.715C1876.54 614.759 1878.69 614.693 1881.1 614.517C1883.47 614.342 1885.91 614.122 1888.41 613.859C1890.92 613.551 1893.26 613.266 1895.46 613.003C1897.61 612.695 1899.41 612.432 1900.86 612.212C1902.31 611.949 1903.21 611.795 1903.56 611.751C1904.09 611.664 1904.72 611.642 1905.47 611.686C1906.22 611.729 1906.87 612.081 1907.44 612.739C1908.02 613.354 1908.32 614.517 1908.37 616.229C1908.37 617.942 1908.17 619.215 1907.77 620.049C1907.38 620.883 1906.98 621.454 1906.59 621.761C1906.15 622.024 1905.93 622.156 1905.93 622.156L1888.22 632.034C1888.22 632.034 1888.65 631.946 1889.53 631.771C1890.41 631.595 1891.55 631.397 1892.96 631.178C1894.36 630.914 1895.88 630.673 1897.5 630.453C1899.13 630.19 1900.68 629.993 1902.18 629.861C1903.67 629.729 1904.79 629.905 1905.53 630.388C1906.24 630.827 1906.72 631.397 1906.98 632.1C1907.25 632.758 1907.38 633.351 1907.38 633.878C1907.38 634.405 1907.38 634.668 1907.38 634.668ZM1904.02 606.412C1902.53 606.543 1900.66 606.631 1898.42 606.675C1896.14 606.719 1893.7 606.741 1891.11 606.741C1888.52 606.741 1886.02 606.719 1883.61 606.675C1881.15 606.587 1878.97 606.5 1877.09 606.412C1875.2 606.324 1873.84 606.236 1873 606.148C1871.95 606.017 1871.16 605.643 1870.63 605.029C1870.06 604.414 1869.67 603.734 1869.45 602.987C1869.23 602.197 1869.12 601.539 1869.12 601.012C1869.07 600.441 1869.05 600.156 1869.05 600.156C1869.05 600.156 1869.1 599.892 1869.18 599.366C1869.23 598.795 1869.34 598.18 1869.51 597.522C1869.69 596.863 1870 596.402 1870.44 596.139C1871.31 595.568 1872.17 595.305 1873 595.349C1873.79 595.349 1874.83 595.392 1876.1 595.48C1879.39 595.744 1882.62 595.897 1885.78 595.941C1888.94 595.985 1891.82 595.985 1894.41 595.941C1897 595.897 1899.06 595.853 1900.6 595.81C1902.13 595.722 1902.9 595.678 1902.9 595.678C1902.9 595.678 1903.14 595.7 1903.62 595.744C1904.06 595.744 1904.57 595.875 1905.14 596.139C1905.71 596.402 1906.24 596.907 1906.72 597.653C1907.16 598.4 1907.38 599.497 1907.38 600.946C1907.38 602.395 1907.22 603.514 1906.92 604.304C1906.57 605.051 1906.17 605.578 1905.73 605.885C1905.25 606.148 1904.85 606.302 1904.55 606.346C1904.2 606.39 1904.02 606.412 1904.02 606.412ZM1881.1 569.112C1881.1 570.605 1880.93 571.746 1880.58 572.536C1880.18 573.327 1879.74 573.897 1879.26 574.249C1878.78 574.556 1878.34 574.731 1877.94 574.775C1877.5 574.819 1877.24 574.841 1877.15 574.841C1876.93 574.841 1876.58 574.929 1876.1 575.105C1875.57 575.236 1875.31 575.675 1875.31 576.422C1875.31 577.651 1875.68 578.748 1876.43 579.714C1877.17 580.636 1878.27 581.141 1879.72 581.229C1881.17 581.317 1882.42 580.944 1883.47 580.109C1884.53 579.275 1885.08 577.629 1885.12 575.17C1885.12 573.941 1885.3 572.646 1885.65 571.285C1886 569.924 1886.57 568.651 1887.36 567.466C1888.11 566.237 1889.14 565.271 1890.45 564.568C1891.73 563.822 1893.33 563.449 1895.26 563.449C1899.13 563.493 1902.11 564.524 1904.22 566.544C1906.32 568.563 1907.38 571.922 1907.38 576.619C1907.38 579.736 1907.01 582.239 1906.26 584.126C1905.47 586.014 1904.55 587.397 1903.49 588.275C1902.44 589.109 1901.5 589.548 1900.66 589.592C1899.83 589.636 1899.02 589.592 1898.23 589.46C1897.43 589.285 1896.75 588.824 1896.18 588.078C1895.61 587.287 1895.26 586.036 1895.13 584.324C1895 582.568 1895.15 581.317 1895.59 580.57C1895.99 579.824 1896.45 579.363 1896.97 579.187C1897.5 578.968 1897.83 578.858 1897.96 578.858C1898.09 578.858 1898.42 578.814 1898.95 578.727C1899.43 578.595 1899.92 578.375 1900.4 578.068C1900.84 577.717 1901.06 577.234 1901.06 576.619C1901.06 575.697 1900.68 574.907 1899.94 574.249C1899.19 573.59 1897.98 573.173 1896.32 572.997C1893.02 572.69 1891.38 574.336 1891.38 577.936C1891.38 578.814 1891.24 579.956 1890.98 581.361C1890.67 582.722 1890.15 584.083 1889.4 585.443C1888.61 586.804 1887.51 587.946 1886.11 588.868C1884.7 589.79 1882.86 590.229 1880.58 590.185C1878.29 590.141 1876.43 589.724 1874.98 588.934C1873.49 588.143 1872.35 587.112 1871.55 585.839C1870.72 584.522 1870.13 583.095 1869.78 581.558C1869.43 579.978 1869.23 578.419 1869.18 576.883C1869.14 574.819 1869.38 572.844 1869.91 570.956C1870.44 569.024 1871.25 567.422 1872.35 566.149C1873.4 564.832 1874.78 564.085 1876.49 563.91C1877.77 563.778 1878.73 563.976 1879.39 564.502C1880.01 564.985 1880.44 565.6 1880.71 566.346C1880.93 567.049 1881.06 567.685 1881.1 568.256C1881.1 568.827 1881.1 569.112 1881.1 569.112ZM1903.76 559.032L1872.67 560.283C1872.67 560.283 1872.5 560.283 1872.15 560.283C1871.8 560.239 1871.4 560.085 1870.96 559.822C1870.48 559.558 1870.06 559.075 1869.71 558.373C1869.32 557.627 1869.1 556.551 1869.05 555.146C1868.96 553.258 1869.18 551.919 1869.71 551.129C1870.19 550.295 1870.72 549.79 1871.29 549.615C1871.82 549.395 1872.1 549.285 1872.15 549.285C1872.19 549.285 1872.7 549.263 1873.66 549.22C1874.63 549.176 1875.81 549.132 1877.22 549.088C1878.62 549.044 1880.03 549 1881.43 548.956C1882.84 548.912 1884.02 548.868 1884.99 548.824C1885.91 548.781 1886.37 548.759 1886.37 548.759L1885.98 541.778L1872.74 542.832C1872.74 542.832 1872.59 542.854 1872.28 542.898C1871.93 542.898 1871.53 542.81 1871.09 542.634C1870.61 542.415 1870.17 541.976 1869.78 541.317C1869.34 540.615 1869.05 539.583 1868.92 538.222C1868.79 536.817 1868.88 535.742 1869.18 534.995C1869.45 534.249 1869.8 533.7 1870.24 533.349C1870.68 532.998 1871.07 532.8 1871.42 532.756C1871.77 532.669 1871.95 532.625 1871.95 532.625L1902.7 530.583C1902.7 530.583 1902.94 530.561 1903.43 530.517C1903.87 530.474 1904.42 530.539 1905.07 530.715C1905.69 530.891 1906.24 531.33 1906.72 532.032C1907.16 532.691 1907.38 533.722 1907.38 535.127C1907.38 536.532 1907.18 537.63 1906.79 538.42C1906.39 539.21 1905.95 539.781 1905.47 540.132C1904.94 540.483 1904.48 540.703 1904.09 540.79C1903.69 540.878 1903.49 540.922 1903.49 540.922L1890.85 541.383L1891.24 548.561L1904.15 547.968C1904.15 547.968 1904.33 547.99 1904.68 548.034C1904.99 548.078 1905.36 548.254 1905.8 548.561C1906.19 548.868 1906.57 549.395 1906.92 550.141C1907.22 550.888 1907.38 551.985 1907.38 553.434C1907.38 554.883 1907.2 556.002 1906.85 556.793C1906.46 557.539 1906.04 558.066 1905.6 558.373C1905.12 558.68 1904.7 558.878 1904.35 558.966C1903.95 559.01 1903.76 559.032 1903.76 559.032ZM1874.19 498.987L1892.5 498.591C1892.5 498.591 1892.52 498.591 1892.56 498.591C1892.65 498.591 1892.89 498.679 1893.29 498.855C1893.64 499.03 1893.99 499.491 1894.34 500.238C1894.69 500.94 1894.89 502.104 1894.93 503.728C1894.93 503.816 1894.93 503.925 1894.93 504.057C1894.93 505.725 1894.67 506.955 1894.14 507.745C1893.57 508.535 1893.02 509.062 1892.5 509.325C1891.93 509.545 1891.64 509.655 1891.64 509.655H1891.71L1873 509.984C1873 509.984 1872.98 509.984 1872.94 509.984C1872.81 509.984 1872.56 509.918 1872.21 509.786C1871.82 509.611 1871.45 509.216 1871.09 508.601C1870.74 507.942 1870.57 506.911 1870.57 505.506C1870.57 505.199 1870.57 504.891 1870.57 504.584C1870.65 502.74 1871.01 501.423 1871.62 500.633C1872.19 499.843 1872.76 499.382 1873.33 499.25C1873.86 499.074 1874.15 498.987 1874.19 498.987ZM1898.09 504.189C1898.09 504.057 1898.09 503.947 1898.09 503.86C1898.09 501.445 1898.47 499.887 1899.21 499.184C1899.92 498.438 1901.14 497.977 1902.9 497.801C1903.25 497.757 1903.56 497.735 1903.82 497.735C1905.23 497.735 1906.17 498.174 1906.65 499.052C1907.14 499.93 1907.38 501.423 1907.38 503.53C1907.38 505.067 1907.14 506.208 1906.65 506.955C1906.13 507.701 1905.42 508.206 1904.55 508.469C1903.62 508.689 1902.57 508.821 1901.39 508.864C1901.34 508.864 1901.28 508.864 1901.19 508.864C1900.22 508.864 1899.52 508.623 1899.08 508.14C1898.64 507.657 1898.38 507.108 1898.29 506.494C1898.16 505.835 1898.09 505.264 1898.09 504.782C1898.09 504.65 1898.09 504.518 1898.09 504.386C1898.09 504.255 1898.09 504.189 1898.09 504.189Z" fill="white"/>
<path d="M1848.38 0H1888.62V40.2431H1848.38V0Z" fill="white"/>
<path d="M1888.62 40.243H1928.86V80.4861H1888.62V40.243Z" fill="white"/>
<rect x="1888.62" width="40.2431" height="40.2431" fill="#404040"/>
<rect x="1848.38" y="40.243" width="40.2431" height="40.2431" fill="#404040"/>
<path d="M1848.38 160.972H1888.62V201.215H1848.38V160.972Z" fill="white"/>
<path d="M1888.62 201.215H1928.86V241.458H1888.62V201.215Z" fill="white"/>
<rect x="1888.62" y="160.972" width="40.2431" height="40.2431" fill="#404040"/>
<rect x="1848.38" y="201.215" width="40.2431" height="40.2431" fill="#404040"/>
<path d="M1848.38 241.458H1888.62V281.702H1848.38V241.458Z" fill="white"/>
<path d="M1888.62 281.702H1928.86V321.945H1888.62V281.702Z" fill="white"/>
<rect x="1888.62" y="241.458" width="40.2431" height="40.2431" fill="#404040"/>
<rect x="1848.38" y="281.702" width="40.2431" height="40.2431" fill="#404040"/>
<path d="M1848.38 321.945H1888.62V362.188H1848.38V321.945Z" fill="white"/>
<path d="M1888.62 362.188H1928.86V402.431H1888.62V362.188Z" fill="white"/>
<rect x="1888.62" y="321.945" width="40.2431" height="40.2431" fill="#404040"/>
<rect x="1848.38" y="362.188" width="40.2431" height="40.2431" fill="#404040"/>
<path d="M1848.38 402.431H1888.62V442.674H1848.38V402.431Z" fill="white"/>
<path d="M1888.62 442.674H1928.86V482.917H1888.62V442.674Z" fill="white"/>
<rect x="1888.62" y="402.431" width="40.2431" height="40.2431" fill="#404040"/>
<rect x="1848.38" y="442.674" width="40.2431" height="40.2431" fill="#404040"/>
<path d="M1848.38 80.4862H1888.62V120.729H1848.38V80.4862Z" fill="white"/>
<path d="M1888.62 120.729H1928.86V160.972H1888.62V120.729Z" fill="white"/>
<rect x="1888.62" y="80.4862" width="40.2431" height="40.2431" fill="#404040"/>
<rect x="1848.38" y="120.729" width="40.2431" height="40.2431" fill="#404040"/>
<path d="M1183 289.5C1183 301.926 1172.93 312 1160.5 312C1148.07 312 1138 301.926 1138 289.5C1138 277.074 1148.07 267 1160.5 267C1172.93 267 1183 277.074 1183 289.5Z" fill="#BCE9EB"/>
<path d="M1162 267C1188.36 267.895 1192.47 311.176 1159.47 311.548C1158.66 311.572 1157.82 311.556 1156.97 311.496C1157.83 311.54 1158.66 311.557 1159.47 311.548C1183.7 310.82 1192.55 274.1 1162 267Z" fill="#59ABAC"/>
<path d="M1140.5 295.235C1135.92 285.623 1144.62 261.364 1168.44 270.976C1160.2 268.975 1140.96 269.145 1140.5 295.235Z" fill="white"/>
<path d="M1155.36 307.443C1147.42 306.47 1148.11 304.869 1149.34 304.718C1162.68 302.901 1168.48 297.299 1169.71 294.725C1172.96 288.82 1171.95 285.435 1170.64 282.006C1169.25 278.372 1166.62 275.536 1168.79 274.738C1172.49 273.376 1175.9 278.215 1176.66 280.189C1184.53 300.63 1166.47 308.806 1155.36 307.443Z" fill="#9DDADA"/>
<path d="M1179.48 285.529C1180.89 291.197 1179.48 305.29 1164.91 307.588C1169.14 306.473 1180.42 297.478 1179.48 285.529Z" fill="white"/>
<path d="M1156.53 286.191C1156.53 289.724 1153.57 292.588 1149.91 292.588C1146.26 292.588 1143.29 289.724 1143.29 286.191C1143.29 282.658 1146.26 279.794 1149.91 279.794C1153.57 279.794 1156.53 282.658 1156.53 286.191Z" fill="#E9FFFF"/>
<path d="M1174.62 296.779C1174.62 299.581 1172.35 301.853 1169.54 301.853C1166.74 301.853 1164.47 299.581 1164.47 296.779C1164.47 293.977 1166.74 291.706 1169.54 291.706C1172.35 291.706 1174.62 293.977 1174.62 296.779Z" fill="#E9FFFF"/>
<path d="M1147.26 294.794C1147.26 296.012 1146.18 297 1144.84 297C1143.5 297 1142.41 296.012 1142.41 294.794C1142.41 293.576 1143.5 292.588 1144.84 292.588C1146.18 292.588 1147.26 293.576 1147.26 294.794Z" fill="#E9FFFF"/>
<path d="M1178.59 289.279C1178.59 290.62 1177.5 291.706 1176.16 291.706C1174.82 291.706 1173.74 290.62 1173.74 289.279C1173.74 287.939 1174.82 286.853 1176.16 286.853C1177.5 286.853 1178.59 287.939 1178.59 289.279Z" fill="#E9FFFF"/>
<path d="M361 571.5C361 583.926 350.926 594 338.5 594C326.074 594 316 583.926 316 571.5C316 559.074 326.074 549 338.5 549C350.926 549 361 559.074 361 571.5Z" fill="#BCE9EB"/>
<path d="M340.004 549C366.355 549.895 370.475 593.176 337.473 593.548C336.656 593.572 335.822 593.556 334.971 593.496C335.827 593.54 336.662 593.557 337.473 593.548C361.696 592.82 370.549 556.1 340.004 549Z" fill="#59ABAC"/>
<path d="M318.499 577.235C313.918 567.623 322.622 543.364 346.441 552.976C338.196 550.975 318.957 551.145 318.499 577.235Z" fill="white"/>
<path d="M333.36 589.443C325.425 588.47 326.105 586.869 327.34 586.718C340.676 584.901 346.48 579.299 347.714 576.725C350.956 570.82 349.951 567.435 348.641 564.006C347.251 560.372 344.62 557.536 346.788 556.738C350.493 555.376 353.9 560.215 354.66 562.189C362.532 582.63 344.473 590.806 333.36 589.443Z" fill="#9DDADA"/>
<path d="M357.484 567.529C358.894 573.197 357.484 587.29 342.912 589.588C347.142 588.473 358.424 579.478 357.484 567.529Z" fill="white"/>
<path d="M334.529 568.191C334.529 571.724 331.567 574.588 327.912 574.588C324.257 574.588 321.294 571.724 321.294 568.191C321.294 564.658 324.257 561.794 327.912 561.794C331.567 561.794 334.529 564.658 334.529 568.191Z" fill="#E9FFFF"/>
<path d="M352.618 578.779C352.618 581.581 350.346 583.853 347.544 583.853C344.742 583.853 342.471 581.581 342.471 578.779C342.471 575.977 344.742 573.706 347.544 573.706C350.346 573.706 352.618 575.977 352.618 578.779Z" fill="#E9FFFF"/>
<path d="M325.265 576.794C325.265 578.012 324.178 579 322.838 579C321.498 579 320.412 578.012 320.412 576.794C320.412 575.576 321.498 574.588 322.838 574.588C324.178 574.588 325.265 575.576 325.265 576.794Z" fill="#E9FFFF"/>
<path d="M356.588 571.279C356.588 572.62 355.502 573.706 354.162 573.706C352.822 573.706 351.735 572.62 351.735 571.279C351.735 569.939 352.822 568.853 354.162 568.853C355.502 568.853 356.588 569.939 356.588 571.279Z" fill="#E9FFFF"/>
<path d="M1609 460.5C1609 472.926 1598.93 483 1586.5 483C1574.07 483 1564 472.926 1564 460.5C1564 448.074 1574.07 438 1586.5 438C1598.93 438 1609 448.074 1609 460.5Z" fill="#BCE9EB"/>
<path d="M1588 438C1614.36 438.895 1618.47 482.176 1585.47 482.548C1584.66 482.572 1583.82 482.556 1582.97 482.496C1583.83 482.54 1584.66 482.557 1585.47 482.548C1609.7 481.82 1618.55 445.1 1588 438Z" fill="#59ABAC"/>
<path d="M1566.5 466.235C1561.92 456.623 1570.62 432.364 1594.44 441.976C1586.2 439.975 1566.96 440.145 1566.5 466.235Z" fill="white"/>
<path d="M1581.36 478.443C1573.42 477.47 1574.11 475.869 1575.34 475.718C1588.68 473.901 1594.48 468.299 1595.71 465.725C1598.96 459.82 1597.95 456.435 1596.64 453.006C1595.25 449.372 1592.62 446.536 1594.79 445.738C1598.49 444.376 1601.9 449.215 1602.66 451.189C1610.53 471.63 1592.47 479.806 1581.36 478.443Z" fill="#9DDADA"/>
<path d="M1605.48 456.529C1606.89 462.197 1605.48 476.29 1590.91 478.588C1595.14 477.473 1606.42 468.478 1605.48 456.529Z" fill="white"/>
<path d="M1582.53 457.191C1582.53 460.724 1579.57 463.588 1575.91 463.588C1572.26 463.588 1569.29 460.724 1569.29 457.191C1569.29 453.658 1572.26 450.794 1575.91 450.794C1579.57 450.794 1582.53 453.658 1582.53 457.191Z" fill="#E9FFFF"/>
<path d="M1600.62 467.779C1600.62 470.581 1598.35 472.853 1595.54 472.853C1592.74 472.853 1590.47 470.581 1590.47 467.779C1590.47 464.977 1592.74 462.706 1595.54 462.706C1598.35 462.706 1600.62 464.977 1600.62 467.779Z" fill="#E9FFFF"/>
<path d="M1573.26 465.794C1573.26 467.012 1572.18 468 1570.84 468C1569.5 468 1568.41 467.012 1568.41 465.794C1568.41 464.576 1569.5 463.588 1570.84 463.588C1572.18 463.588 1573.26 464.576 1573.26 465.794Z" fill="#E9FFFF"/>
<path d="M1604.59 460.279C1604.59 461.62 1603.5 462.706 1602.16 462.706C1600.82 462.706 1599.74 461.62 1599.74 460.279C1599.74 458.939 1600.82 457.853 1602.16 457.853C1603.5 457.853 1604.59 458.939 1604.59 460.279Z" fill="#E9FFFF"/>
<path d="M1587 694.5C1587 706.926 1576.93 717 1564.5 717C1552.07 717 1542 706.926 1542 694.5C1542 682.074 1552.07 672 1564.5 672C1576.93 672 1587 682.074 1587 694.5Z" fill="#BCE9EB"/>
<path d="M1566 672C1592.36 672.895 1596.47 716.176 1563.47 716.548C1562.66 716.572 1561.82 716.556 1560.97 716.496C1561.83 716.54 1562.66 716.557 1563.47 716.548C1587.7 715.82 1596.55 679.1 1566 672Z" fill="#59ABAC"/>
<path d="M1544.5 700.235C1539.92 690.623 1548.62 666.364 1572.44 675.976C1564.2 673.975 1544.96 674.145 1544.5 700.235Z" fill="white"/>
<path d="M1559.36 712.443C1551.42 711.47 1552.11 709.869 1553.34 709.718C1566.68 707.901 1572.48 702.299 1573.71 699.725C1576.96 693.82 1575.95 690.435 1574.64 687.006C1573.25 683.372 1570.62 680.536 1572.79 679.738C1576.49 678.376 1579.9 683.215 1580.66 685.189C1588.53 705.63 1570.47 713.806 1559.36 712.443Z" fill="#9DDADA"/>
<path d="M1583.48 690.529C1584.89 696.197 1583.48 710.29 1568.91 712.588C1573.14 711.473 1584.42 702.478 1583.48 690.529Z" fill="white"/>
<path d="M1560.53 691.191C1560.53 694.724 1557.57 697.588 1553.91 697.588C1550.26 697.588 1547.29 694.724 1547.29 691.191C1547.29 687.658 1550.26 684.794 1553.91 684.794C1557.57 684.794 1560.53 687.658 1560.53 691.191Z" fill="#E9FFFF"/>
<path d="M1578.62 701.779C1578.62 704.581 1576.35 706.853 1573.54 706.853C1570.74 706.853 1568.47 704.581 1568.47 701.779C1568.47 698.977 1570.74 696.706 1573.54 696.706C1576.35 696.706 1578.62 698.977 1578.62 701.779Z" fill="#E9FFFF"/>
<path d="M1551.26 699.794C1551.26 701.012 1550.18 702 1548.84 702C1547.5 702 1546.41 701.012 1546.41 699.794C1546.41 698.576 1547.5 697.588 1548.84 697.588C1550.18 697.588 1551.26 698.576 1551.26 699.794Z" fill="#E9FFFF"/>
<path d="M1582.59 694.279C1582.59 695.62 1581.5 696.706 1580.16 696.706C1578.82 696.706 1577.74 695.62 1577.74 694.279C1577.74 692.939 1578.82 691.853 1580.16 691.853C1581.5 691.853 1582.59 692.939 1582.59 694.279Z" fill="#E9FFFF"/>
<path d="M896.25 683.5C896.25 702.14 881.14 717.25 862.5 717.25C843.86 717.25 828.75 702.14 828.75 683.5C828.75 664.86 843.86 649.75 862.5 649.75C881.14 649.75 896.25 664.86 896.25 683.5Z" fill="#BCE9EB"/>
<path d="M864.756 649.75C904.283 651.093 910.462 716.014 860.96 716.572C859.734 716.609 858.483 716.584 857.206 716.494C858.491 716.56 859.742 716.585 860.96 716.572C897.295 715.48 910.574 660.4 864.756 649.75Z" fill="#59ABAC"/>
<path d="M832.498 692.103C825.627 677.685 838.682 641.296 874.412 655.714C862.044 652.713 833.186 652.968 832.498 692.103Z" fill="white"/>
<path d="M854.79 710.415C842.887 708.955 843.908 706.554 845.76 706.327C865.764 703.601 874.469 695.198 876.322 691.337C881.184 682.479 879.677 677.403 877.711 672.259C875.627 666.808 871.681 662.554 874.932 661.357C880.489 659.313 885.6 666.573 886.74 669.534C898.548 700.195 871.46 712.459 854.79 710.415Z" fill="#9DDADA"/>
<path d="M890.976 677.544C893.092 686.046 890.976 707.186 869.118 710.632C875.464 708.96 892.386 695.467 890.976 677.544Z" fill="white"/>
<path d="M856.544 678.537C856.544 683.836 852.1 688.132 846.618 688.132C841.135 688.132 836.691 683.836 836.691 678.537C836.691 673.237 841.135 668.941 846.618 668.941C852.1 668.941 856.544 673.237 856.544 678.537Z" fill="#E9FFFF"/>
<path d="M883.676 694.419C883.676 698.622 880.269 702.029 876.066 702.029C871.863 702.029 868.456 698.622 868.456 694.419C868.456 690.216 871.863 686.809 876.066 686.809C880.269 686.809 883.676 690.216 883.676 694.419Z" fill="#E9FFFF"/>
<path d="M842.647 691.441C842.647 693.269 841.018 694.75 839.007 694.75C836.997 694.75 835.368 693.269 835.368 691.441C835.368 689.614 836.997 688.132 839.007 688.132C841.018 688.132 842.647 689.614 842.647 691.441Z" fill="#E9FFFF"/>
<path d="M889.632 683.169C889.632 685.179 888.003 686.809 885.993 686.809C883.982 686.809 882.353 685.179 882.353 683.169C882.353 681.159 883.982 679.529 885.993 679.529C888.003 679.529 889.632 681.159 889.632 683.169Z" fill="#E9FFFF"/>
<path d="M456.5 482.75C456.5 501.39 441.39 516.5 422.75 516.5C404.11 516.5 389 501.39 389 482.75C389 464.11 404.11 449 422.75 449C441.39 449 456.5 464.11 456.5 482.75Z" fill="#BCE9EB"/>
<path d="M425.006 449C464.533 450.343 470.712 515.264 421.21 515.822C419.984 515.859 418.733 515.834 417.456 515.744C418.741 515.81 419.992 515.835 421.21 515.822C457.545 514.73 470.824 459.65 425.006 449Z" fill="#59ABAC"/>
<path d="M392.748 491.353C385.877 476.935 398.932 440.546 434.662 454.964C422.294 451.963 393.436 452.218 392.748 491.353Z" fill="white"/>
<path d="M415.04 509.665C403.137 508.205 404.158 505.804 406.01 505.577C426.014 502.851 434.719 494.448 436.572 490.587C441.434 481.729 439.927 476.653 437.961 471.509C435.877 466.058 431.931 461.804 435.182 460.607C440.739 458.563 445.85 465.823 446.99 468.784C458.798 499.445 431.71 511.709 415.04 509.665Z" fill="#9DDADA"/>
<path d="M451.226 476.794C453.342 485.296 451.226 506.436 429.368 509.882C435.714 508.21 452.636 494.717 451.226 476.794Z" fill="white"/>
<path d="M416.794 477.787C416.794 483.086 412.35 487.382 406.868 487.382C401.385 487.382 396.941 483.086 396.941 477.787C396.941 472.487 401.385 468.191 406.868 468.191C412.35 468.191 416.794 472.487 416.794 477.787Z" fill="#E9FFFF"/>
<path d="M443.926 493.669C443.926 497.872 440.519 501.279 436.316 501.279C432.113 501.279 428.706 497.872 428.706 493.669C428.706 489.466 432.113 486.059 436.316 486.059C440.519 486.059 443.926 489.466 443.926 493.669Z" fill="#E9FFFF"/>
<path d="M402.897 490.691C402.897 492.519 401.268 494 399.257 494C397.247 494 395.618 492.519 395.618 490.691C395.618 488.864 397.247 487.382 399.257 487.382C401.268 487.382 402.897 488.864 402.897 490.691Z" fill="#E9FFFF"/>
<path d="M449.882 482.419C449.882 484.429 448.253 486.059 446.243 486.059C444.232 486.059 442.603 484.429 442.603 482.419C442.603 480.409 444.232 478.779 446.243 478.779C448.253 478.779 449.882 480.409 449.882 482.419Z" fill="#E9FFFF"/>
<path d="M1289.5 348.75C1289.5 367.39 1274.39 382.5 1255.75 382.5C1237.11 382.5 1222 367.39 1222 348.75C1222 330.11 1237.11 315 1255.75 315C1274.39 315 1289.5 330.11 1289.5 348.75Z" fill="#BCE9EB"/>
<path d="M1258.01 315C1297.53 316.343 1303.71 381.264 1254.21 381.822C1252.98 381.859 1251.73 381.834 1250.46 381.744C1251.74 381.81 1252.99 381.835 1254.21 381.822C1290.54 380.73 1303.82 325.65 1258.01 315Z" fill="#59ABAC"/>
<path d="M1225.75 357.353C1218.88 342.935 1231.93 306.546 1267.66 320.964C1255.29 317.963 1226.44 318.218 1225.75 357.353Z" fill="white"/>
<path d="M1248.04 375.665C1236.14 374.205 1237.16 371.804 1239.01 371.577C1259.01 368.851 1267.72 360.448 1269.57 356.587C1274.43 347.729 1272.93 342.653 1270.96 337.509C1268.88 332.058 1264.93 327.804 1268.18 326.607C1273.74 324.563 1278.85 331.823 1279.99 334.784C1291.8 365.445 1264.71 377.709 1248.04 375.665Z" fill="#9DDADA"/>
<path d="M1284.23 342.794C1286.34 351.296 1284.23 372.436 1262.37 375.882C1268.71 374.21 1285.64 360.717 1284.23 342.794Z" fill="white"/>
<path d="M1249.79 343.787C1249.79 349.086 1245.35 353.382 1239.87 353.382C1234.39 353.382 1229.94 349.086 1229.94 343.787C1229.94 338.487 1234.39 334.191 1239.87 334.191C1245.35 334.191 1249.79 338.487 1249.79 343.787Z" fill="#E9FFFF"/>
<path d="M1276.93 359.669C1276.93 363.872 1273.52 367.279 1269.32 367.279C1265.11 367.279 1261.71 363.872 1261.71 359.669C1261.71 355.466 1265.11 352.059 1269.32 352.059C1273.52 352.059 1276.93 355.466 1276.93 359.669Z" fill="#E9FFFF"/>
<path d="M1235.9 356.691C1235.9 358.519 1234.27 360 1232.26 360C1230.25 360 1228.62 358.519 1228.62 356.691C1228.62 354.864 1230.25 353.382 1232.26 353.382C1234.27 353.382 1235.9 354.864 1235.9 356.691Z" fill="#E9FFFF"/>
<path d="M1282.88 348.419C1282.88 350.429 1281.25 352.059 1279.24 352.059C1277.23 352.059 1275.6 350.429 1275.6 348.419C1275.6 346.409 1277.23 344.779 1279.24 344.779C1281.25 344.779 1282.88 346.409 1282.88 348.419Z" fill="#E9FFFF"/>
<path d="M844.5 174.75C844.5 193.39 829.39 208.5 810.75 208.5C792.11 208.5 777 193.39 777 174.75C777 156.11 792.11 141 810.75 141C829.39 141 844.5 156.11 844.5 174.75Z" fill="#BCE9EB"/>
<path d="M813.006 141C852.533 142.343 858.712 207.264 809.21 207.822C807.984 207.859 806.733 207.834 805.456 207.744C806.741 207.81 807.992 207.835 809.21 207.822C845.545 206.73 858.824 151.65 813.006 141Z" fill="#59ABAC"/>
<path d="M780.748 183.353C773.877 168.935 786.932 132.546 822.662 146.964C810.294 143.963 781.436 144.218 780.748 183.353Z" fill="white"/>
<path d="M803.04 201.665C791.137 200.205 792.158 197.804 794.01 197.577C814.014 194.851 822.719 186.448 824.572 182.587C829.434 173.729 827.927 168.653 825.961 163.509C823.877 158.058 819.931 153.804 823.182 152.607C828.739 150.563 833.85 157.823 834.99 160.784C846.798 191.445 819.71 203.709 803.04 201.665Z" fill="#9DDADA"/>
<path d="M839.226 168.794C841.342 177.296 839.226 198.436 817.368 201.882C823.714 200.21 840.636 186.717 839.226 168.794Z" fill="white"/>
<path d="M804.794 169.787C804.794 175.086 800.35 179.382 794.868 179.382C789.385 179.382 784.941 175.086 784.941 169.787C784.941 164.487 789.385 160.191 794.868 160.191C800.35 160.191 804.794 164.487 804.794 169.787Z" fill="#E9FFFF"/>
<path d="M831.926 185.669C831.926 189.872 828.519 193.279 824.316 193.279C820.113 193.279 816.706 189.872 816.706 185.669C816.706 181.466 820.113 178.059 824.316 178.059C828.519 178.059 831.926 181.466 831.926 185.669Z" fill="#E9FFFF"/>
<path d="M790.897 182.691C790.897 184.519 789.268 186 787.257 186C785.247 186 783.618 184.519 783.618 182.691C783.618 180.864 785.247 179.382 787.257 179.382C789.268 179.382 790.897 180.864 790.897 182.691Z" fill="#E9FFFF"/>
<path d="M837.882 174.419C837.882 176.429 836.253 178.059 834.243 178.059C832.232 178.059 830.603 176.429 830.603 174.419C830.603 172.409 832.232 170.779 834.243 170.779C836.253 170.779 837.882 172.409 837.882 174.419Z" fill="#E9FFFF"/>
</svg>
